<svg width="21" height="22" viewBox="0 0 21 22" fill="none" xmlns="http://www.w3.org/2000/svg">
<circle cx="10.5" cy="11" r="9.75" fill="white" stroke="#1B1818" stroke-width="1.5"/>
<path fill-rule="evenodd" clip-rule="evenodd" d="M11.3004 8.11637C11.3004 7.70215 10.9646 7.36637 10.5504 7.36637C10.1362 7.36637 9.80041 7.70215 9.80041 8.11637V10.3002H7.61643C7.20221 10.3002 6.86643 10.636 6.86643 11.0502C6.86643 11.4644 7.20221 11.8002 7.61643 11.8002H9.80041V13.8829C9.80041 14.2971 10.1362 14.6329 10.5504 14.6329C10.9646 14.6329 11.3004 14.2971 11.3004 13.8829V11.8002H13.383C13.7972 11.8002 14.133 11.4644 14.133 11.0502C14.133 10.636 13.7972 10.3002 13.383 10.3002H11.3004V8.11637Z" fill="#1B1818"/>
</svg>