<svg width="21" height="22" viewBox="0 0 21 22" fill="none" xmlns="http://www.w3.org/2000/svg">
<circle cx="10.5" cy="11" r="9.75" fill="white" stroke="#1B1818" stroke-width="1.5"/>
<path fill-rule="evenodd" clip-rule="evenodd" d="M11.3005 8.11631C11.3005 7.70209 10.9647 7.36631 10.5505 7.36631C10.1363 7.36631 9.80053 7.70209 9.80053 8.11631V10.3002H7.61655C7.20234 10.3002 6.86655 10.6359 6.86655 11.0502C6.86655 11.4644 7.20234 11.8002 7.61655 11.8002H9.80053V13.8829C9.80053 14.2971 10.1363 14.6329 10.5505 14.6329C10.9647 14.6329 11.3005 14.2971 11.3005 13.8829V11.8002H13.3831C13.7973 11.8002 14.1331 11.4644 14.1331 11.0502C14.1331 10.6359 13.7973 10.3002 13.3831 10.3002H11.3005V8.11631Z" fill="#1B1818"/>
</svg>