<svg width="96" height="96" viewBox="0 0 96 96" fill="none" xmlns="http://www.w3.org/2000/svg">
<circle cx="48" cy="48" r="48" fill="#F2F2F2"/>
<path fill-rule="evenodd" clip-rule="evenodd" d="M50.1747 37.9987C50.1747 36.8941 49.2793 35.9987 48.1747 35.9987C47.0701 35.9987 46.1747 36.8941 46.1747 37.9987V46.1737H38.0007C36.8962 46.1737 36.0007 47.0691 36.0007 48.1737C36.0007 49.2782 36.8962 50.1737 38.0007 50.1737H46.1747V57.9977C46.1747 59.1022 47.0701 59.9977 48.1747 59.9977C49.2793 59.9977 50.1747 59.1022 50.1747 57.9977V50.1737H57.9997C59.1043 50.1737 59.9997 49.2782 59.9997 48.1737C59.9997 47.0691 59.1043 46.1737 57.9997 46.1737H50.1747V37.9987Z" fill="#1B1818"/>
</svg>
