<svg width="18" height="21" viewBox="0 0 18 21" fill="none" xmlns="http://www.w3.org/2000/svg">
<path d="M13 0.5C13.183 0.5 13.355 0.55 13.502 0.635L13.535 0.655C13.815 0.832 14 1.145 14 1.5V2.5H15C15.7652 2.49996 16.5015 2.79233 17.0583 3.31728C17.615 3.84224 17.9501 4.56011 17.995 5.324L18 5.5V17.5C18 18.2652 17.7077 19.0015 17.1827 19.5583C16.6578 20.115 15.9399 20.4501 15.176 20.495L15 20.5H3C2.23479 20.5 1.49849 20.2077 0.941739 19.6827C0.384993 19.1578 0.0498925 18.4399 0.00500012 17.676L4.66045e-09 17.5V5.5C-4.26217e-05 4.73479 0.292325 3.99849 0.817284 3.44174C1.34224 2.88499 2.06011 2.54989 2.824 2.505L3 2.5H4V1.5C3.99999 1.32173 4.04764 1.14669 4.13802 0.993025C4.22839 0.839356 4.3582 0.712641 4.514 0.626L4.607 0.58L4.673 0.555L4.773 0.526L4.88 0.507L5 0.5C5.05533 0.5 5.109 0.504333 5.161 0.513L5.283 0.542L5.323 0.554L5.383 0.577C5.711 0.712 5.951 1.017 5.993 1.383L6 1.5V2.5H12V1.5C12 1.23478 12.1054 0.98043 12.2929 0.792893C12.4804 0.605357 12.7348 0.5 13 0.5ZM16 7.5H2V17.125C2 17.83 2.386 18.411 2.883 18.491L3 18.5H15C15.513 18.5 15.936 17.97 15.993 17.285L16 17.125V7.5Z" fill="#979797"/>
<path d="M6.01496 11.5C6.01496 11.7652 5.9096 12.0196 5.72207 12.2071C5.53453 12.3946 5.28018 12.5 5.01496 12.5C4.8799 12.5064 4.74494 12.4853 4.61824 12.4381C4.49154 12.3909 4.37572 12.3185 4.27776 12.2253C4.17981 12.1321 4.10176 12.02 4.04831 11.8958C3.99487 11.7716 3.96714 11.6378 3.9668 11.5026C3.96646 11.3674 3.99352 11.2335 4.04634 11.1091C4.09917 10.9846 4.17666 10.8721 4.27415 10.7784C4.37163 10.6847 4.48709 10.6117 4.61356 10.5639C4.74002 10.516 4.87487 10.4943 5.00996 10.5C5.56696 10.5 6.01496 10.948 6.01496 11.5Z" fill="#979797"/>
<path d="M10.015 11.5C10.015 11.7652 9.9096 12.0196 9.72207 12.2071C9.53453 12.3946 9.28018 12.5 9.01496 12.5C8.8799 12.5064 8.74494 12.4853 8.61824 12.4381C8.49154 12.3909 8.37572 12.3185 8.27776 12.2253C8.17981 12.1321 8.10176 12.02 8.04831 11.8958C7.99487 11.7716 7.96714 11.6378 7.9668 11.5026C7.96646 11.3674 7.99352 11.2335 8.04635 11.1091C8.09917 10.9846 8.17666 10.8721 8.27415 10.7784C8.37163 10.6847 8.48709 10.6117 8.61356 10.5639C8.74002 10.516 8.87487 10.4943 9.00996 10.5C9.56696 10.5 10.015 10.948 10.015 11.5Z" fill="#979797"/>
<path d="M14.0198 11.5C14.0198 11.7652 13.9145 12.0196 13.7269 12.2071C13.5394 12.3946 13.2851 12.5 13.0198 12.5C12.8848 12.5064 12.7498 12.4853 12.6231 12.4381C12.4964 12.3909 12.3806 12.3185 12.2826 12.2253C12.1847 12.1321 12.1066 12.02 12.0532 11.8958C11.9997 11.7716 11.972 11.6378 11.9717 11.5026C11.9713 11.3674 11.9984 11.2335 12.0512 11.1091C12.1041 10.9846 12.1815 10.8721 12.279 10.7784C12.3765 10.6847 12.492 10.6117 12.6184 10.5639C12.7449 10.516 12.8797 10.4943 13.0148 10.5C13.5718 10.5 14.0198 10.948 14.0198 11.5Z" fill="#979797"/>
<path d="M9.01984 13.5C9.28506 13.5 9.53941 13.6054 9.72695 13.7929C9.91449 13.9804 10.0198 14.2348 10.0198 14.5C10.0198 14.7652 9.91449 15.0196 9.72695 15.2071C9.53941 15.3946 9.28506 15.5 9.01984 15.5C8.88478 15.5064 8.74982 15.4853 8.62312 15.4381C8.49642 15.3909 8.3806 15.3185 8.28265 15.2253C8.18469 15.1321 8.10664 15.02 8.05319 14.8958C7.99975 14.7716 7.97202 14.6378 7.97168 14.5026C7.97134 14.3674 7.9984 14.2335 8.05123 14.1091C8.10405 13.9846 8.18154 13.8721 8.27903 13.7784C8.37652 13.6847 8.49197 13.6117 8.61844 13.5639C8.7449 13.516 8.87975 13.4943 9.01484 13.5H9.01984Z" fill="#979797"/>
<path d="M6.01496 14.5C6.01496 14.7652 5.9096 15.0196 5.72207 15.2071C5.53453 15.3946 5.28018 15.5 5.01496 15.5C4.8799 15.5064 4.74494 15.4853 4.61824 15.4381C4.49154 15.3909 4.37572 15.3185 4.27776 15.2253C4.17981 15.1321 4.10176 15.02 4.04831 14.8958C3.99487 14.7716 3.96714 14.6378 3.9668 14.5026C3.96646 14.3674 3.99352 14.2335 4.04634 14.1091C4.09917 13.9846 4.17666 13.8721 4.27415 13.7784C4.37163 13.6847 4.48709 13.6117 4.61356 13.5639C4.74002 13.516 4.87487 13.4943 5.00996 13.5C5.56696 13.5 6.01496 13.948 6.01496 14.5Z" fill="#979797"/>
</svg>
