<svg width="18" height="18" viewBox="0 0 18 18" fill="none" xmlns="http://www.w3.org/2000/svg">
<g clip-path="url(#clip0_442_1792)">
<path d="M12 1.5C12.1372 1.5 12.2663 1.5375 12.3765 1.60125L12.4012 1.61625C12.6112 1.749 12.75 1.98375 12.75 2.25V3H13.5C14.0739 2.99997 14.6261 3.21924 15.0437 3.61296C15.4613 4.00668 15.7126 4.54508 15.7463 5.118L15.75 5.25V14.25C15.75 14.8239 15.5308 15.3761 15.137 15.7937C14.7433 16.2113 14.2049 16.4626 13.632 16.4963L13.5 16.5H4.5C3.92609 16.5 3.37386 16.2808 2.9563 15.887C2.53874 15.4933 2.28742 14.9549 2.25375 14.382L2.25 14.25V5.25C2.24997 4.67609 2.46924 4.12386 2.86296 3.7063C3.25668 3.28874 3.79508 3.03742 4.368 3.00375L4.5 3H5.25V2.25C5.24999 2.1163 5.28573 1.98502 5.35351 1.86977C5.42129 1.75452 5.51865 1.65948 5.6355 1.5945L5.70525 1.56L5.75475 1.54125L5.82975 1.5195L5.91 1.50525L6 1.5C6.0415 1.5 6.08175 1.50325 6.12075 1.50975L6.21225 1.5315L6.24225 1.5405L6.28725 1.55775C6.53325 1.659 6.71325 1.88775 6.74475 2.16225L6.75 2.25V3H11.25V2.25C11.25 2.05109 11.329 1.86032 11.4697 1.71967C11.6103 1.57902 11.8011 1.5 12 1.5ZM14.25 6.75H3.75V13.9688C3.75 14.4975 4.0395 14.9332 4.41225 14.9932L4.5 15H13.5C13.8848 15 14.202 14.6025 14.2448 14.0887L14.25 13.9688V6.75Z" fill="#979797"/>
<path d="M6.76122 9.74999C6.76122 9.94891 6.6822 10.1397 6.54155 10.2803C6.4009 10.421 6.21013 10.5 6.01122 10.5C5.90992 10.5048 5.80871 10.489 5.71368 10.4536C5.61865 10.4182 5.53179 10.3639 5.45832 10.2939C5.38486 10.224 5.32632 10.14 5.28623 10.0468C5.24615 9.95367 5.22535 9.85337 5.2251 9.75196C5.22485 9.65055 5.24514 9.55014 5.28476 9.45678C5.32438 9.36343 5.3825 9.27908 5.45561 9.2088C5.52873 9.13853 5.61532 9.0838 5.71017 9.04791C5.80501 9.01202 5.90615 8.99572 6.00747 8.99999C6.42522 8.99999 6.76122 9.33599 6.76122 9.74999Z" fill="#979797"/>
<path d="M9.76122 9.74999C9.76122 9.94891 9.6822 10.1397 9.54155 10.2803C9.4009 10.421 9.21013 10.5 9.01122 10.5C8.90992 10.5048 8.80871 10.489 8.71368 10.4536C8.61865 10.4182 8.53179 10.3639 8.45832 10.2939C8.38486 10.224 8.32632 10.14 8.28623 10.0468C8.24615 9.95367 8.22535 9.85337 8.2251 9.75196C8.22485 9.65055 8.24514 9.55014 8.28476 9.45678C8.32438 9.36343 8.3825 9.27908 8.45561 9.2088C8.52873 9.13853 8.61532 9.0838 8.71017 9.04791C8.80501 9.01202 8.90615 8.99572 9.00747 8.99999C9.42522 8.99999 9.76122 9.33599 9.76122 9.74999Z" fill="#979797"/>
<path d="M12.7649 9.74999C12.7649 9.94891 12.6859 10.1397 12.5452 10.2803C12.4046 10.421 12.2138 10.5 12.0149 10.5C11.9136 10.5048 11.8124 10.489 11.7173 10.4536C11.6223 10.4182 11.5355 10.3639 11.462 10.2939C11.3885 10.224 11.33 10.14 11.2899 10.0468C11.2498 9.95367 11.229 9.85337 11.2288 9.75196C11.2285 9.65055 11.2488 9.55014 11.2884 9.45678C11.328 9.36343 11.3862 9.27908 11.4593 9.2088C11.5324 9.13853 11.619 9.0838 11.7138 9.04791C11.8087 9.01202 11.9098 8.99572 12.0111 8.99999C12.4289 8.99999 12.7649 9.33599 12.7649 9.74999Z" fill="#979797"/>
<path d="M9.01488 11.25C9.21379 11.25 9.40456 11.329 9.54521 11.4697C9.68586 11.6103 9.76488 11.8011 9.76488 12C9.76488 12.1989 9.68586 12.3897 9.54521 12.5303C9.40456 12.671 9.21379 12.75 9.01488 12.75C8.91358 12.7548 8.81237 12.739 8.71734 12.7036C8.62232 12.6682 8.53545 12.6139 8.46199 12.5439C8.38852 12.474 8.32998 12.39 8.2899 12.2968C8.24981 12.2037 8.22902 12.1034 8.22876 12.002C8.22851 11.9005 8.2488 11.8001 8.28842 11.7068C8.32804 11.6134 8.38616 11.5291 8.45927 11.4588C8.53239 11.3885 8.61898 11.3338 8.71383 11.2979C8.80868 11.262 8.90981 11.2457 9.01113 11.25H9.01488Z" fill="#979797"/>
<path d="M6.76122 12C6.76122 12.1989 6.6822 12.3897 6.54155 12.5303C6.4009 12.671 6.21013 12.75 6.01122 12.75C5.90992 12.7548 5.80871 12.739 5.71368 12.7036C5.61865 12.6682 5.53179 12.6139 5.45832 12.5439C5.38486 12.474 5.32632 12.39 5.28623 12.2968C5.24615 12.2037 5.22535 12.1034 5.2251 12.002C5.22485 11.9005 5.24514 11.8001 5.28476 11.7068C5.32438 11.6134 5.3825 11.5291 5.45561 11.4588C5.52873 11.3885 5.61532 11.3338 5.71017 11.2979C5.80501 11.262 5.90615 11.2457 6.00747 11.25C6.42522 11.25 6.76122 11.586 6.76122 12Z" fill="#979797"/>
</g>
<defs>
<clipPath id="clip0_442_1792">
<rect width="18" height="18" fill="white"/>
</clipPath>
</defs>
</svg>
