<svg width="30" height="31" viewBox="0 0 30 31" fill="none" xmlns="http://www.w3.org/2000/svg">
<g clip-path="url(#clip0_415_3366)">
<path d="M20 3C20.2288 3 20.4438 3.0625 20.6275 3.16875L20.6688 3.19375C21.0187 3.415 21.25 3.80625 21.25 4.25V5.5H22.5C23.4565 5.49995 24.3769 5.86541 25.0728 6.5216C25.7688 7.1778 26.1876 8.07513 26.2438 9.03L26.25 9.25V24.25C26.2501 25.2065 25.8846 26.1269 25.2284 26.8228C24.5722 27.5188 23.6749 27.9376 22.72 27.9938L22.5 28H7.5C6.54349 28.0001 5.62311 27.6346 4.92717 26.9784C4.23124 26.3222 3.81237 25.4249 3.75625 24.47L3.75 24.25V9.25C3.74995 8.29349 4.11541 7.37311 4.7716 6.67717C5.4278 5.98124 6.32513 5.56237 7.28 5.50625L7.5 5.5H8.75V4.25C8.74999 4.02716 8.80955 3.80837 8.92252 3.61628C9.03548 3.4242 9.19775 3.2658 9.3925 3.1575L9.50875 3.1L9.59125 3.06875L9.71625 3.0325L9.85 3.00875L10 3C10.0692 3 10.1363 3.00542 10.2013 3.01625L10.3538 3.0525L10.4037 3.0675L10.4788 3.09625C10.8888 3.265 11.1888 3.64625 11.2413 4.10375L11.25 4.25V5.5H18.75V4.25C18.75 3.91848 18.8817 3.60054 19.1161 3.36612C19.3505 3.1317 19.6685 3 20 3ZM23.75 11.75H6.25V23.7812C6.25 24.6625 6.7325 25.3887 7.35375 25.4887L7.5 25.5H22.5C23.1413 25.5 23.67 24.8375 23.7412 23.9813L23.75 23.7812V11.75Z" fill="#FF8D3C"/>
<path d="M11.2687 16.75C11.2687 17.0815 11.137 17.3995 10.9026 17.6339C10.6682 17.8683 10.3502 18 10.0187 18C9.84987 18.008 9.68118 17.9816 9.5228 17.9226C9.36442 17.8636 9.21965 17.7731 9.09721 17.6566C8.97476 17.5401 8.8772 17.4 8.81039 17.2447C8.74358 17.0895 8.70892 16.9223 8.7085 16.7533C8.70808 16.5842 8.7419 16.4169 8.80793 16.2613C8.87396 16.1057 8.97083 15.9651 9.09268 15.848C9.21454 15.7309 9.35886 15.6397 9.51694 15.5799C9.67502 15.52 9.84358 15.4929 10.0124 15.5C10.7087 15.5 11.2687 16.06 11.2687 16.75Z" fill="#FF8D3C"/>
<path d="M16.2687 16.75C16.2687 17.0815 16.137 17.3995 15.9026 17.6339C15.6682 17.8683 15.3502 18 15.0187 18C14.8499 18.008 14.6812 17.9816 14.5228 17.9226C14.3644 17.8636 14.2196 17.7731 14.0972 17.6566C13.9748 17.5401 13.8772 17.4 13.8104 17.2447C13.7436 17.0895 13.7089 16.9223 13.7085 16.7533C13.7081 16.5842 13.7419 16.4169 13.8079 16.2613C13.874 16.1057 13.9708 15.9651 14.0927 15.848C14.2145 15.7309 14.3589 15.6397 14.5169 15.5799C14.675 15.52 14.8436 15.4929 15.0124 15.5C15.7087 15.5 16.2687 16.06 16.2687 16.75Z" fill="#FF8D3C"/>
<path d="M21.275 16.75C21.275 17.0815 21.1433 17.3995 20.9089 17.6339C20.6745 17.8683 20.3566 18 20.025 18C19.8562 18.008 19.6875 17.9816 19.5291 17.9226C19.3708 17.8636 19.226 17.7731 19.1036 17.6566C18.9811 17.5401 18.8835 17.4 18.8167 17.2447C18.7499 17.0895 18.7153 16.9223 18.7148 16.7533C18.7144 16.5842 18.7482 16.4169 18.8143 16.2613C18.8803 16.1057 18.9772 15.9651 19.099 15.848C19.2209 15.7309 19.3652 15.6397 19.5233 15.5799C19.6814 15.52 19.8499 15.4929 20.0188 15.5C20.715 15.5 21.275 16.06 21.275 16.75Z" fill="#FF8D3C"/>
<path d="M15.025 19.25C15.3566 19.25 15.6745 19.3817 15.9089 19.6161C16.1434 19.8505 16.275 20.1685 16.275 20.5C16.275 20.8315 16.1434 21.1495 15.9089 21.3839C15.6745 21.6183 15.3566 21.75 15.025 21.75C14.8562 21.758 14.6875 21.7316 14.5291 21.6726C14.3708 21.6136 14.226 21.5231 14.1036 21.4066C13.9811 21.2901 13.8835 21.15 13.8167 20.9947C13.7499 20.8395 13.7153 20.6723 13.7148 20.5033C13.7144 20.3342 13.7482 20.1669 13.8143 20.0113C13.8803 19.8557 13.9772 19.7151 14.099 19.598C14.2209 19.4809 14.3652 19.3897 14.5233 19.3299C14.6814 19.27 14.8499 19.2429 15.0188 19.25H15.025Z" fill="#FF8D3C"/>
<path d="M11.2687 20.5C11.2687 20.8315 11.137 21.1495 10.9026 21.3839C10.6682 21.6183 10.3502 21.75 10.0187 21.75C9.84987 21.758 9.68118 21.7316 9.5228 21.6726C9.36442 21.6136 9.21965 21.5231 9.09721 21.4066C8.97476 21.2901 8.8772 21.15 8.81039 20.9947C8.74358 20.8395 8.70892 20.6723 8.7085 20.5033C8.70808 20.3342 8.7419 20.1669 8.80793 20.0113C8.87396 19.8557 8.97083 19.7151 9.09268 19.598C9.21454 19.4809 9.35886 19.3897 9.51694 19.3299C9.67502 19.27 9.84358 19.2429 10.0124 19.25C10.7087 19.25 11.2687 19.81 11.2687 20.5Z" fill="#FF8D3C"/>
</g>
<defs>
<clipPath id="clip0_415_3366">
<rect width="30" height="30" fill="white" transform="translate(0 0.5)"/>
</clipPath>
</defs>
</svg>
