<svg width="20" height="21" viewBox="0 0 20 21" fill="none" xmlns="http://www.w3.org/2000/svg">
<path d="M10.0099 0.510986C10.7877 0.511034 11.5389 0.794357 12.1229 1.30799L12.2769 1.45299L12.9749 2.15099C13.1665 2.3413 13.4166 2.46144 13.6849 2.49199L13.8199 2.49999H14.8199C15.6371 2.49994 16.4234 2.81256 17.0175 3.37373C17.6116 3.9349 17.9684 4.70209 18.0149 5.51799L18.0199 5.69999V6.69999C18.0199 6.96999 18.1119 7.23299 18.2779 7.44299L18.3679 7.54299L19.0649 8.24099C19.6426 8.81543 19.9795 9.58861 20.0068 10.4029C20.0341 11.2171 19.7498 12.0111 19.2119 12.623L19.0669 12.777L18.3689 13.475C18.1786 13.6665 18.0585 13.9167 18.0279 14.185L18.0199 14.32V15.32C18.02 16.1372 17.7074 16.9235 17.1462 17.5176C16.585 18.1116 15.8178 18.4685 15.0019 18.515L14.8199 18.52H13.8199C13.5503 18.5201 13.2886 18.611 13.0769 18.778L12.9769 18.868L12.2789 19.565C11.7045 20.1427 10.9313 20.4796 10.1171 20.5069C9.30281 20.5342 8.5088 20.2499 7.89692 19.712L7.74292 19.567L7.04492 18.869C6.85336 18.6787 6.60322 18.5585 6.33492 18.528L6.19992 18.52H5.19992C4.38271 18.52 3.59644 18.2074 3.00236 17.6462C2.40827 17.0851 2.0514 16.3179 2.00492 15.502L1.99992 15.32V14.32C1.99983 14.0504 1.90895 13.7886 1.74192 13.577L1.65192 13.477L0.954923 12.779C0.377205 12.2045 0.0403463 11.4314 0.0130312 10.6171C-0.0142839 9.80287 0.270002 9.00886 0.807924 8.39699L0.952924 8.24299L1.65092 7.54499C1.84124 7.35343 1.96138 7.10328 1.99192 6.83499L1.99992 6.69999V5.69999L2.00492 5.51799C2.04958 4.73343 2.38135 3.99274 2.93701 3.43707C3.49267 2.88141 4.23337 2.54964 5.01792 2.50499L5.19992 2.49999H6.19992C6.46954 2.4999 6.73127 2.40901 6.94292 2.24199L7.04292 2.15199L7.74092 1.45499C8.03826 1.15588 8.39179 0.918492 8.78119 0.756486C9.17059 0.59448 9.58817 0.511047 10.0099 0.510986ZM13.7069 7.79299C13.5194 7.60552 13.2651 7.5002 12.9999 7.5002C12.7348 7.5002 12.4805 7.60552 12.2929 7.79299L8.99992 11.085L7.70692 9.79299L7.61292 9.70999C7.41193 9.55457 7.15932 9.48149 6.9064 9.50559C6.65347 9.52968 6.41921 9.64914 6.25117 9.83971C6.08314 10.0303 5.99394 10.2777 6.0017 10.5316C6.00945 10.7856 6.11358 11.027 6.29292 11.207L8.29292 13.207L8.38692 13.29C8.57933 13.4392 8.81958 13.5132 9.0626 13.4979C9.30563 13.4826 9.53473 13.3792 9.70692 13.207L13.7069 9.20699L13.7899 9.11299C13.9392 8.92058 14.0131 8.68033 13.9978 8.43731C13.9825 8.19428 13.8791 7.96518 13.7069 7.79299Z" fill="#FFBE6A"/>
</svg>
