<svg width="26" height="26" viewBox="0 0 26 26" fill="none" xmlns="http://www.w3.org/2000/svg">
<path d="M19.5002 1.74186C21.461 2.87397 23.0921 4.49854 24.2321 6.45475C25.372 8.41096 25.9813 10.631 25.9996 12.895C26.0179 15.159 25.4445 17.3886 24.3363 19.363C23.2281 21.3373 21.6235 22.988 19.6813 24.1517C17.739 25.3153 15.5266 25.9515 13.2629 25.9973C10.9992 26.0432 8.76282 25.497 6.7751 24.4129C4.78739 23.3288 3.11727 21.7443 1.93009 19.8164C0.74291 17.8885 0.0798331 15.684 0.00650023 13.4211L0 12.9999L0.00650023 12.5787C0.0793051 10.3335 0.732621 8.14561 1.90275 6.22815C3.07289 4.31069 4.71991 2.72915 6.68324 1.63771C8.64657 0.546267 10.8592 -0.017824 13.1055 0.000429319C15.3517 0.0186827 17.5549 0.618657 19.5002 1.74186ZM17.8193 9.48076C17.5955 9.25693 17.2976 9.12247 16.9817 9.1026C16.6658 9.08274 16.3534 9.17883 16.1033 9.37286L15.9811 9.48076L11.7001 13.7604L10.0192 12.0808L9.89702 11.9729C9.64688 11.779 9.3346 11.683 9.01874 11.7029C8.70288 11.7228 8.40513 11.8573 8.18134 12.0811C7.95755 12.3049 7.82308 12.6026 7.80316 12.9185C7.78323 13.2343 7.87921 13.5466 8.0731 13.7968L8.181 13.919L10.781 16.519L10.9032 16.6269C11.1312 16.8037 11.4116 16.8997 11.7001 16.8997C11.9887 16.8997 12.2691 16.8037 12.4971 16.6269L12.6193 16.519L17.8193 11.319L17.9272 11.1968C18.1212 10.9466 18.2173 10.6343 18.1975 10.3184C18.1776 10.0024 18.0432 9.70461 17.8193 9.48076Z" fill="#FF8D3C"/>
</svg>