<svg width="16" height="16" viewBox="0 0 16 16" fill="none" xmlns="http://www.w3.org/2000/svg">
<path d="M11.75 1.50501C12.8902 2.16328 13.8369 3.11007 14.4952 4.25022C15.1535 5.39038 15.5 6.68372 15.5 8.00025C15.5 9.31678 15.1534 10.6101 14.4952 11.7503C13.8369 12.8904 12.8901 13.8372 11.7499 14.4954C10.6098 15.1537 9.31641 15.5002 7.99988 15.5002C6.68335 15.5002 5.39001 15.1536 4.24988 14.4953C3.10974 13.837 2.16297 12.8902 1.50473 11.7501C0.846485 10.6099 0.499967 9.31654 0.5 8.00001L0.50375 7.75701C0.545752 6.46175 0.922661 5.19948 1.59773 4.09326C2.2728 2.98703 3.22299 2.0746 4.35567 1.44492C5.48835 0.815246 6.76486 0.489808 8.06075 0.500339C9.35665 0.51087 10.6277 0.857009 11.75 1.50501ZM7.69925 8.68701L7.73825 8.70276L7.79825 8.72226L7.85825 8.73651L7.91225 8.74476L8 8.75001L8.057 8.74776L8.15825 8.73276L8.21975 8.71776L8.297 8.68851L8.35175 8.66226L8.41025 8.62776L8.45525 8.59626L8.51525 8.54451L8.5775 8.47851L8.624 8.41626L8.66375 8.34876L8.687 8.30076L8.711 8.24001L8.7335 8.15826L8.74475 8.08776L8.75 8.00001V4.25001C8.75 4.0511 8.67098 3.86033 8.53033 3.71968C8.38968 3.57903 8.19891 3.50001 8 3.50001C7.80109 3.50001 7.61032 3.57903 7.46967 3.71968C7.32902 3.86033 7.25 4.0511 7.25 4.25001V6.59826L6.16625 5.87601C6.01332 5.77394 5.82821 5.7316 5.64611 5.75704C5.46401 5.78248 5.2976 5.87393 5.1785 6.01401L5.126 6.08376C5.07133 6.1657 5.03333 6.25761 5.01418 6.35424C4.99503 6.45087 4.9951 6.55032 5.01439 6.64692C5.03369 6.74352 5.07182 6.83537 5.12661 6.91723C5.18141 6.99909 5.2518 7.06936 5.33375 7.12401L7.61225 8.64201L7.69925 8.68701Z" fill="#979797"/>
</svg>
