<svg width="20" height="20" viewBox="0 0 20 20" fill="none" xmlns="http://www.w3.org/2000/svg">
<circle cx="10" cy="10" r="10" fill="white"/>
<path fill-rule="evenodd" clip-rule="evenodd" d="M8.53032 7.46967C8.23743 7.17678 7.76256 7.17678 7.46967 7.46967C7.17678 7.76257 7.17678 8.23745 7.46967 8.53034L8.93821 9.99892L7.46978 11.4674C7.17689 11.7603 7.17689 12.2352 7.46978 12.528C7.76267 12.8209 8.23754 12.8209 8.53043 12.528L9.99886 11.0596L11.4673 12.528C11.7602 12.8209 12.2351 12.8209 12.5279 12.528C12.8208 12.2352 12.8208 11.7603 12.5279 11.4674L11.0595 9.99892L12.5281 8.53034C12.821 8.23745 12.821 7.76257 12.5281 7.46967C12.2352 7.17678 11.7603 7.17678 11.4674 7.46967L9.99886 8.93825L8.53032 7.46967Z" fill="#686868"/>
</svg>
