<svg width="16" height="20" viewBox="0 0 16 20" fill="none" xmlns="http://www.w3.org/2000/svg">
<path d="M6.2149 1.42704C6.2149 0.632848 7.16794 0.225822 7.74193 0.775443C9.50902 2.46853 10.5361 6.18591 9.3213 9.00621L9.25376 9.1531C9.25134 9.15837 9.2543 9.16454 9.25993 9.16595C9.82399 9.28598 10.3456 8.77788 11.3384 7.20483L11.4647 7.00267C11.538 6.88479 11.6374 6.78539 11.7553 6.71219C11.8732 6.63899 12.0063 6.59396 12.1445 6.5806C12.2826 6.56725 12.4219 6.58592 12.5517 6.63517C12.6814 6.68442 12.798 6.76293 12.8925 6.86458C14.0964 8.15967 15.2399 10.8148 15.2399 12.5232C15.2399 16.3724 11.999 19.477 8.0199 19.477C4.04079 19.477 0.799927 16.3724 0.799927 12.5223C0.799927 10.4899 1.72228 8.26616 3.1753 6.8357L3.72131 6.30413C3.93881 6.09114 4.11299 5.91606 4.27905 5.74098C5.56962 4.3764 6.2149 3.10208 6.2149 1.42704Z" fill="url(#paint0_linear_770_36)"/>
<path d="M6.36197 11.8241C6.65471 11.7742 6.95492 11.7907 7.24045 11.8723C7.52599 11.9538 7.78958 12.0985 8.0118 12.2955L8.02404 12.3064L8.03528 12.2964C8.24736 12.1103 8.4967 11.9716 8.76665 11.8894C9.0366 11.8073 9.32096 11.7837 9.60077 11.8202L9.68213 11.8321C10.0348 11.893 10.3645 12.0481 10.6362 12.2811C10.9079 12.514 11.1116 12.8161 11.2256 13.1554C11.3396 13.4946 11.3598 13.8584 11.284 14.2082C11.2081 14.558 11.0391 14.8807 10.7948 15.1423L10.7353 15.2035L10.7194 15.2171L8.25524 17.3465C8.19837 17.4028 8.12303 17.4366 8.04318 17.4416C7.96333 17.4465 7.88438 17.4224 7.82095 17.3736L7.78986 17.3465L5.31148 15.2028C5.04893 14.9474 4.86221 14.6242 4.77199 14.2692C4.68178 13.9141 4.6916 13.5411 4.80036 13.1913C4.90912 12.8415 5.11258 12.5286 5.3882 12.2873C5.66382 12.046 6.00085 11.8857 6.36197 11.8241Z" fill="white"/>
<defs>
<linearGradient id="paint0_linear_770_36" x1="7.87158" y1="-0.148496" x2="7.87158" y2="19.506" gradientUnits="userSpaceOnUse">
<stop stop-color="#FFE8A4"/>
<stop offset="0.635" stop-color="#FF8D3C"/>
<stop offset="1" stop-color="#FF710C"/>
</linearGradient>
</defs>
</svg>
