<svg width="46" height="56" viewBox="0 0 46 56" fill="none" xmlns="http://www.w3.org/2000/svg">
<rect x="7.37744" y="0.0630493" width="38.2292" height="50.3016" rx="4.02413" fill="#FF964D"/>
<rect y="5.42856" width="38.2292" height="50.3016" rx="4.02413" fill="#FAFAFA"/>
<path fill-rule="evenodd" clip-rule="evenodd" d="M19.4497 21.4667C21.5332 21.4667 23.2223 19.7532 23.2223 17.6394C23.2223 15.5257 21.5332 13.8122 19.4497 13.8122C17.3661 13.8122 15.677 15.5257 15.677 17.6394C15.677 19.7532 17.3661 21.4667 19.4497 21.4667ZM24.7538 23.6312C23.8554 22.6344 22.6369 22.0743 21.3663 22.0743H17.5338C16.2632 22.0743 15.0447 22.6344 14.1463 23.6312C13.2479 24.6281 12.7432 25.9802 12.7432 27.39V28.4531C12.7432 29.017 12.9451 29.5579 13.3044 29.9566C13.6638 30.3554 14.1512 30.5794 14.6594 30.5794H24.2407C24.7489 30.5794 25.2363 30.3554 25.5957 29.9566C25.955 29.5579 26.1569 29.017 26.1569 28.4531V27.39C26.1569 25.9802 25.6522 24.6281 24.7538 23.6312Z" fill="#C1C1C1"/>
<path d="M10.0605 37.6216H28.8398" stroke="#C1C1C1" stroke-width="2.01206" stroke-linecap="round"/>
<path d="M10.0605 42.9871H28.8398" stroke="#C1C1C1" stroke-width="2.01206" stroke-linecap="round"/>
<path d="M10.0605 48.3526H28.8398" stroke="#C1C1C1" stroke-width="2.01206" stroke-linecap="round"/>
</svg>
