<svg width="51" height="54" viewBox="0 0 51 54" fill="none" xmlns="http://www.w3.org/2000/svg">
<path d="M50.9997 3.14917V44.7411C50.9997 47.7751 48.5425 50.2714 45.4712 50.2714H43.6668C42.5534 50.2714 41.6319 49.6569 40.8641 48.8503C39.6355 47.5063 38.9828 45.7396 38.9828 43.8962V39.0957C38.9828 37.1754 37.4087 35.6009 35.489 35.6009H13.2598V3.14917C13.2598 1.421 14.6803 0 16.4079 0H47.8516C49.6176 0 50.9997 1.421 50.9997 3.14917Z" fill="#FF8D3C"/>
<path d="M42.1114 53.0399H7.14028C3.20498 53.0399 0 49.8757 0 45.9907V41.3847C0 39.3821 1.66333 37.7399 3.69181 37.7399H33.5106C35.5391 37.7399 37.2024 39.3821 37.2024 41.3847V46.3913C37.2024 48.2737 37.8921 50.1561 39.1904 51.558C39.9612 52.3991 40.9349 53.0399 42.1114 53.0399Z" fill="#FF8D3C"/>
<path d="M22 13C23.1046 13 24 12.1046 24 11C24 9.89543 23.1046 9 22 9C20.8954 9 20 9.89543 20 11C20 12.1046 20.8954 13 22 13Z" fill="white"/>
<path d="M22 20C23.1046 20 24 19.1046 24 18C24 16.8954 23.1046 16 22 16C20.8954 16 20 16.8954 20 18C20 19.1046 20.8954 20 22 20Z" fill="white"/>
<path d="M22 27C23.1046 27 24 26.1046 24 25C24 23.8954 23.1046 23 22 23C20.8954 23 20 23.8954 20 25C20 26.1046 20.8954 27 22 27Z" fill="white"/>
<path d="M28 11H44" stroke="white" stroke-width="2.12308" stroke-linecap="round"/>
<path d="M28 18H44" stroke="white" stroke-width="2.12308" stroke-linecap="round"/>
<path d="M28 25H44" stroke="white" stroke-width="2.12308" stroke-linecap="round"/>
</svg>
