<svg width="153" height="179" viewBox="0 0 153 179" fill="none" xmlns="http://www.w3.org/2000/svg">
<circle cx="95.2327" cy="33.3433" r="6.88944" fill="#FFE5E0"/>
<path d="M55.4561 78.2941L74.6312 70.0856L79.0909 84.6858L59.0567 90.4135L55.4561 78.2941Z" fill="#FFE5E0"/>
<path d="M130.826 52.1998C128.525 48.8229 127.444 43.9587 127.16 41.2054L133.179 37.1406C146.9 46.3367 140.918 59.3109 136.211 64.6485C136.848 63.1305 136.963 61.6505 136.796 60.3235C136.366 56.9039 132.766 55.0482 130.826 52.1998Z" fill="#251812"/>
<rect x="108.197" y="44.3891" width="14.2763" height="17.9458" fill="#FFE5E0"/>
<ellipse cx="115.335" cy="49.5501" rx="7.13817" ry="4.14133" fill="#FFCFC6"/>
<ellipse cx="21.4103" cy="22.7773" rx="21.4103" ry="22.7773" transform="matrix(-1 0 0 1 135.345 5.48589)" fill="#FFE5E0"/>
<path d="M121.439 12.9732C124.193 20.3869 133.871 24.4478 138.079 25.9923C139.007 6.11417 125.231 0.493279 118.227 0.167603C97.6655 -1.93523 90.2103 16.2815 91.0484 24.9767C107.115 24.9767 118.187 16.9448 121.439 12.9732Z" fill="#251812"/>
<ellipse cx="1.52211" cy="2.13096" rx="1.52211" ry="2.13096" transform="matrix(-0.997103 0.0760686 0.0760686 0.997103 99.6128 28.8622)" fill="#240B09"/>
<ellipse cx="1.52211" cy="2.13096" rx="1.52211" ry="2.13096" transform="matrix(-0.997103 0.0760686 0.0760686 0.997103 109.145 27.4111)" fill="#240B09"/>
<path d="M102.122 37.5095C102.95 37.8305 104.912 38.0696 106.127 36.4583" stroke="#240B09" stroke-width="1.44203" stroke-linecap="round"/>
<path d="M102.833 32.653V34.0334" stroke="#FFB3A4" stroke-width="1.44203" stroke-linecap="round"/>
<path d="M98.6912 58.7519L108.17 56.4985C114.237 62.5075 120.53 58.8771 122.496 56.123L130.08 58.7519L136.401 60.6297C142.175 63.0252 146.373 68.5165 147.356 71.521L151.053 81.5802L78.6748 81.6612L82.8884 71.521C84.9109 64.3102 95.4608 59.3779 98.6912 58.7519Z" fill="#8DB2FE"/>
<path d="M107.75 23.9979C108.314 23.5377 109.775 22.9924 111.113 24.4926" stroke="#402724" stroke-width="1.44203" stroke-linecap="round"/>
<path d="M132.181 59.3629L128.03 58.0369L127.685 71.8413H132.516L132.181 59.3629Z" fill="#53917C"/>
<path d="M96.5413 59.3631L98.3776 58.8014L100.513 58.3197L101.038 71.8415H96.2065L96.5413 59.3631Z" fill="#53917C"/>
<path d="M74.9434 69.0412L92.6316 62.2898L87.5942 80.7022L78.1977 85.4867L74.9434 69.0412Z" fill="#8DB2FE" stroke="#8DB2FE" stroke-width="2.88405" stroke-linecap="round"/>
<circle cx="135.873" cy="28.2632" r="6.88944" fill="#FFE5E0"/>
<path d="M92.9835 116.202L88.0228 80.6932L135.802 79.1266L151.052 81.5675L152.882 93.9298H134.465L140.149 167.27L77.5293 163.587L92.9835 116.202Z" fill="#8DB2FE"/>
<path d="M96.0553 69.7218C96.1837 69.0404 96.7789 68.547 97.4723 68.547H131.105C131.841 68.547 132.458 69.1003 132.539 69.8313L142.2 157.655L79.7656 156.123L96.0553 69.7218Z" fill="#53917C"/>
<path d="M120.458 104.17C125.128 101.516 133.723 95.9065 135.165 94.7048H137.82H149.567C149.29 117.382 128.73 120.858 118.752 118.964L84.896 110.429V99.3335L120.458 104.17Z" fill="#FFE5E0" stroke="#FFE5E0" stroke-width="2" stroke-linecap="round"/>
<path d="M76.7314 103.051C76.3205 103.051 75.9265 102.888 75.6359 102.597C75.3454 102.307 75.1821 101.912 75.1821 101.502V89.6339C75.1823 87.3606 76.0581 85.1748 77.6275 83.5303C79.197 81.8858 81.3396 80.9091 83.6104 80.8028L93.6086 80.3174C94.0195 80.2982 94.4212 80.443 94.7253 80.72C95.0294 80.997 95.211 81.3835 95.2302 81.7944C95.2493 82.2053 95.1045 82.607 94.8275 82.9111C94.5505 83.2152 94.1641 83.3968 93.7532 83.416L83.755 83.9014C82.2789 83.9705 80.8863 84.606 79.8667 85.6755C78.8472 86.7451 78.2791 88.1666 78.2807 89.6442V101.512C78.278 101.921 78.1136 102.312 77.8233 102.601C77.5331 102.889 77.1406 103.051 76.7314 103.051Z" fill="#263238"/>
<rect x="18.0732" y="99.5948" width="6.61595" height="56.6631" rx="3.30798" fill="#D9D9D9"/>
<rect x="24.3623" y="122.162" width="50.8199" height="56.6631" rx="4.49023" fill="#D9D9D9"/>
<rect x="37.2114" y="116.966" width="13.8044" height="16.6444" fill="#FFE5E0"/>
<ellipse cx="44.1136" cy="122.162" rx="6.90221" ry="4.14133" fill="#FFCFC6"/>
<circle cx="24.0887" cy="105.92" r="6.88944" fill="#FFE5E0"/>
<path d="M27.1917 131.178L36.6702 128.925C42.7377 134.934 49.03 131.303 50.9963 128.549L58.5807 131.178L64.9011 133.056C70.6757 135.452 74.8732 140.943 75.8563 143.947L79.6485 154.088H7.17529L11.3889 143.947C13.4114 136.737 23.9613 131.804 27.1917 131.178Z" fill="#B3CAFF"/>
<circle cx="64.7298" cy="100.84" r="6.88944" fill="#FFE5E0"/>
<ellipse cx="21.4103" cy="22.7773" rx="21.4103" ry="22.7773" transform="matrix(-1 0 0 1 64.2021 78.0628)" fill="#FFE5E0"/>
<ellipse cx="51.9157" cy="102.488" rx="1.52211" ry="2.13096" transform="rotate(4.36262 51.9157 102.488)" fill="#240B09"/>
<ellipse cx="41.7316" cy="102.229" rx="1.52211" ry="2.13096" transform="rotate(4.36262 41.7316 102.229)" fill="#240B09"/>
<path d="M44.2583 109.362C45.1563 109.768 47.3671 110.21 49.0266 108.728" stroke="#240B09" stroke-width="1.44203" stroke-linecap="round"/>
<path d="M43.5892 106.911C42.7099 107.413 40.7359 109.107 39.8745 111.864" stroke="#FFB3A4" stroke-width="1.44203" stroke-linecap="round"/>
<path d="M46.688 105.23V106.61" stroke="#FFB3A4" stroke-width="1.44203" stroke-linecap="round"/>
<path d="M41.5917 95.979C40.9018 95.7481 39.3419 95.7553 38.6216 97.6318" stroke="#402724" stroke-width="1.44203" stroke-linecap="round"/>
<path d="M3.34271 96.548C5.92871 94.2831 10.8472 95.5677 14.3966 96.9874C14.3966 96.8353 14.3966 96.7001 14.3966 96.548C14.3058 93.9393 14.8471 91.3473 15.9743 88.9929C17.1014 86.6385 18.7811 84.5915 20.8701 83.0264C20.8701 77.3473 25.2646 74.8458 30.0986 73.3416C34.9325 71.8373 39.1411 74.6768 44.8202 72.0063C45.7449 71.4716 46.7682 71.1294 47.8285 71.0001C48.8888 70.8708 49.9644 70.9571 50.9905 71.2539C52.0166 71.5507 52.9721 72.0518 53.7997 72.7271C54.6273 73.4025 55.3099 74.2381 55.8065 75.1839C57.2769 77.8544 56.6347 81.7249 61.3672 81.8602C66.0998 81.9954 64.9504 86.4237 64.0377 88.79C63.125 91.1563 63.3786 90.4802 64.8828 93.1C65.9138 94.8916 64.3757 96.024 63.2771 96.4804C63.463 97.7311 63.4969 98.5086 63.4969 98.5086C63.3616 97.8325 63.2095 97.1903 63.0405 96.5818C56.2797 70.8401 31.1972 86.0688 31.1972 86.0688C33.6311 94.9423 28.8309 107.686 28.8309 107.686C26.7182 113.349 29.8281 119.061 31.7888 121.884C32.2176 122.516 32.6861 123.12 33.1916 123.693C32.3201 123.167 31.4996 122.562 30.7408 121.884C20.5996 121.529 21.0729 116.019 21.0898 114.194C20.8802 113.34 20.4945 112.54 19.9574 111.844C18.2672 115.123 14.7008 119.45 8.36261 118.047C-1.50815 115.918 -1.0011 100.368 3.34271 96.548Z" fill="#D2D3D5"/>
<rect x="73.3569" y="99.5948" width="6.61595" height="56.6631" rx="3.30798" fill="#D9D9D9"/>
<ellipse cx="81.0765" cy="104.469" rx="9.90855" ry="9.44082" fill="#FFE5E0"/>
</svg>
