<svg width="46" height="61" viewBox="0 0 46 61" fill="none" xmlns="http://www.w3.org/2000/svg">
<rect y="7.78467" width="46" height="53.0769" rx="4.24615" fill="#FF8D3C"/>
<rect x="4.9541" y="10.6154" width="36.0923" height="46" rx="3.53846" fill="white"/>
<path fill-rule="evenodd" clip-rule="evenodd" d="M29.3608 4.24617H36.8V10.6154H9.90771V4.24617H17.3472C18.2216 1.77237 20.5808 0 23.354 0C26.1272 0 28.4865 1.77237 29.3608 4.24617Z" fill="#D9D9D9"/>
<rect x="9.90771" y="9.19995" width="26.8923" height="2.12308" fill="#C1C1C1"/>
<path d="M17.6926 18.4509C18.5465 18.944 19.2568 19.6515 19.7533 20.5034C20.2497 21.3553 20.5151 22.3222 20.523 23.3082C20.531 24.2942 20.2813 25.2652 19.7987 26.125C19.316 26.9848 18.6172 27.7037 17.7714 28.2105C16.9255 28.7173 15.962 28.9944 14.9762 29.0143C13.9904 29.0343 13.0164 28.7964 12.1508 28.3243C11.2851 27.8521 10.5578 27.1621 10.0408 26.3225C9.52373 25.4829 9.23496 24.5228 9.20303 23.5373L9.2002 23.3538L9.20303 23.1704C9.23473 22.1926 9.51925 21.2398 10.0288 20.4047C10.5384 19.5697 11.2557 18.8809 12.1107 18.4056C12.9658 17.9302 13.9294 17.6846 14.9076 17.6925C15.8859 17.7005 16.8454 17.9618 17.6926 18.4509ZM16.9605 21.8212C16.863 21.7238 16.7333 21.6652 16.5957 21.6566C16.4581 21.6479 16.3221 21.6898 16.2132 21.7743L16.16 21.8212L14.2956 23.685L13.5636 22.9536L13.5104 22.9066C13.4014 22.8221 13.2654 22.7803 13.1279 22.789C12.9903 22.7977 12.8606 22.8562 12.7632 22.9537C12.6657 23.0512 12.6071 23.1808 12.5985 23.3184C12.5898 23.456 12.6316 23.592 12.716 23.7009L12.763 23.7541L13.8953 24.8864L13.9486 24.9334C14.0478 25.0104 14.1699 25.0523 14.2956 25.0523C14.4213 25.0523 14.5434 25.0104 14.6427 24.9334L14.6959 24.8864L16.9605 22.6218L17.0075 22.5686C17.092 22.4596 17.1339 22.3236 17.1252 22.186C17.1166 22.0484 17.058 21.9187 16.9605 21.8212Z" fill="#FB7618"/>
<path d="M14.8618 36.0923H34.6772" stroke="#C1C1C1" stroke-width="2.12308" stroke-linecap="round"/>
<path d="M14.8618 41.7538H34.6772" stroke="#C1C1C1" stroke-width="2.12308" stroke-linecap="round"/>
<path d="M14.8618 47.4154H34.6772" stroke="#C1C1C1" stroke-width="2.12308" stroke-linecap="round"/>
</svg>
