<svg width="71" height="51" viewBox="0 0 71 51" fill="none" xmlns="http://www.w3.org/2000/svg">
<rect x="0.330566" y="0.11615" width="64.8665" height="40.086" rx="6.55954" fill="#F2F2F2"/>
<rect x="5.43311" y="5.21802" width="31.34" height="29.8823" rx="4.37302" fill="#FF964D"/>
<path fill-rule="evenodd" clip-rule="evenodd" d="M21.4665 19.3357C23.7308 19.3357 25.5663 17.4806 25.5663 15.1922C25.5663 12.9038 23.7308 11.0487 21.4665 11.0487C19.2023 11.0487 17.3668 12.9038 17.3668 15.1922C17.3668 17.4806 19.2023 19.3357 21.4665 19.3357ZM27.2302 21.7474C26.2539 20.6682 24.9297 20.0619 23.549 20.0619H19.3842C18.0035 20.0619 16.6793 20.6682 15.703 21.7474C14.7267 22.8267 14.1782 24.2904 14.1782 25.8167V26.9677C14.1782 27.5782 14.3976 28.1637 14.7881 28.5954C15.1787 29.0271 15.7083 29.2696 16.2606 29.2696H26.6726C27.2249 29.2696 27.7545 29.0271 28.1451 28.5954C28.5356 28.1637 28.755 27.5782 28.755 26.9677V25.8167C28.755 24.2904 28.2065 22.8267 27.2302 21.7474Z" fill="white"/>
<path d="M41.874 8.86218H57.1796" stroke="#C1C1C1" stroke-width="2.18651" stroke-linecap="round"/>
<path d="M41.874 14.6929H57.1796" stroke="#C1C1C1" stroke-width="2.18651" stroke-linecap="round"/>
<path d="M41.874 20.5236H57.1796" stroke="#C1C1C1" stroke-width="2.18651" stroke-linecap="round"/>
<path fill-rule="evenodd" clip-rule="evenodd" d="M62.7751 35.7114C62.7751 39.2691 59.8911 42.1532 56.3334 42.1532C52.7757 42.1532 49.8916 39.2691 49.8916 35.7114C49.8916 32.1537 52.7757 29.2696 56.3334 29.2696C59.8911 29.2696 62.7751 32.1537 62.7751 35.7114ZM62.3362 44.7087C60.6188 45.8568 58.5542 46.5262 56.3334 46.5262C50.3605 46.5262 45.5186 41.6843 45.5186 35.7114C45.5186 29.7386 50.3605 24.8966 56.3334 24.8966C62.3062 24.8966 67.1482 29.7386 67.1482 35.7114C67.1482 38.1676 66.3293 40.4326 64.9497 42.2483L70.4927 47.9552C71.1833 48.6661 71.1667 49.8022 70.4558 50.4928C69.7448 51.1833 68.6087 51.1667 67.9182 50.4558L62.3362 44.7087Z" fill="#808080"/>
</svg>
