<svg width="132" height="172" viewBox="0 0 132 172" fill="none" xmlns="http://www.w3.org/2000/svg">
<rect x="0.906738" y="69.9897" width="13.1979" height="19.7968" rx="6.59894" transform="rotate(-46.3885 0.906738 69.9897)" fill="#FFE5E0"/>
<rect width="15.9848" height="20.0934" transform="matrix(-1 0 0 1 90.832 49.7013)" fill="#FFE5E0"/>
<ellipse cx="7.99242" cy="4.63693" rx="7.99242" ry="4.63693" transform="matrix(-1 0 0 1 90.832 50.8429)" fill="#FFCFC6"/>
<ellipse cx="84.4076" cy="31.6455" rx="23.9725" ry="25.5031" fill="#FFE5E0"/>
<ellipse cx="1.70427" cy="2.38597" rx="1.70427" ry="2.38597" transform="matrix(-0.991731 -0.128333 -0.128333 0.991731 76.9629 31.0965)" fill="#240B09"/>
<ellipse cx="1.70427" cy="2.38597" rx="1.70427" ry="2.38597" transform="matrix(-0.991731 -0.128333 -0.128333 0.991731 87.7427 31.6765)" fill="#240B09"/>
<path d="M77.7441 41.1475C78.5797 41.6882 80.6756 42.397 82.3748 40.9074" stroke="#240B09" stroke-width="1.44203" stroke-linecap="round"/>
<path d="M79.6299 35.9855L79.3155 37.4988" stroke="#FFB3A4" stroke-width="1.44203" stroke-linecap="round"/>
<path d="M101.474 65.7829L90.8616 63.2599C84.068 69.988 77.0227 65.9231 74.8211 62.8394L66.329 65.7829L59.2523 67.8854C57.3389 68.6792 55.5442 69.5177 53.9368 70.3921C47.9927 73.6259 44.7745 80.0327 41.2128 85.7862L108.779 88.7381L115.039 105.171L84.5185 91.5603L79.1568 100.221C93.6745 131.566 116.826 126.342 126.174 121.256C135.083 115.317 129.886 97.8843 126.174 89.4981L121.225 80.4246C117.513 73.8257 105.091 66.4838 101.474 65.7829Z" fill="#FFC778"/>
<path d="M86.9912 27.617C87.7138 27.2409 89.4402 26.976 90.565 28.9252" stroke="#402724" stroke-width="1.44203" stroke-linecap="round"/>
<circle cx="7.71391" cy="7.71391" r="7.71391" transform="matrix(-1 0 0 1 67.5576 28.0455)" fill="#FFE5E0"/>
<circle cx="7.71391" cy="7.71391" r="7.71391" transform="matrix(-1 0 0 1 116.444 28.0455)" fill="#FFE5E0"/>
<path d="M77.9081 14.8846C74.6642 23.1243 63.742 27.4605 58.9979 29.0984C58.3894 6.82543 73.9335 0.831607 81.7815 0.618815C104.844 -1.28965 112.795 19.2649 111.669 28.9806C93.6831 28.6324 81.462 19.4011 77.9081 14.8846Z" fill="#251812"/>
<path d="M37.0891 83.3116L53.9989 71.3511L64.3098 87.8484L44.1356 101.909C40.0828 104.734 34.5747 104.176 31.1707 100.596L13.168 81.6619L21.4166 71.3511L37.0891 83.3116Z" fill="#FFC778"/>
<path d="M48.6372 171.985L56.4735 82.8992L108.853 86.6111L119.576 171.985H48.6372Z" fill="#FFC778"/>
<path d="M84.7662 135.277H46.3375C45.5615 135.242 44.8178 134.956 44.2177 134.463C43.6177 133.97 43.1936 133.296 43.009 132.542L30.1617 72.8499C30.0676 72.524 30.0523 72.1805 30.1169 71.8476C30.1816 71.5147 30.3245 71.2019 30.5337 70.9349C30.743 70.6679 31.0127 70.4544 31.3206 70.3119C31.6285 70.1695 31.9659 70.1021 32.305 70.1154H70.721C71.4992 70.1477 72.2458 70.4319 72.8484 70.9251C73.451 71.4182 73.877 72.0938 74.0621 72.8499L86.9095 132.542C87.0036 132.868 87.0189 133.212 86.9542 133.544C86.8895 133.877 86.7467 134.19 86.5374 134.457C86.3282 134.724 86.0585 134.938 85.7505 135.08C85.4426 135.223 85.1052 135.29 84.7662 135.277Z" fill="#FFC778"/>
<path d="M85.257 136.102H46.2798C45.4919 136.065 44.7368 135.775 44.1273 135.275C43.5178 134.776 43.0865 134.093 42.8976 133.329L29.8591 72.8882C29.7657 72.557 29.7521 72.2085 29.8194 71.871C29.8867 71.5336 30.0329 71.2168 30.2462 70.9464C30.4595 70.6761 30.7337 70.4599 31.0467 70.3155C31.3596 70.171 31.7023 70.1024 32.0468 70.1153H71.024C71.812 70.1519 72.567 70.4416 73.1765 70.9414C73.786 71.4411 74.2174 72.124 74.4063 72.8882L87.4322 133.329C87.5281 133.659 87.5439 134.007 87.4785 134.345C87.413 134.682 87.2681 135 87.0557 135.271C86.8433 135.541 86.5694 135.758 86.2567 135.902C85.944 136.047 85.6014 136.115 85.257 136.102Z" fill="white"/>
<path d="M82.258 136.102H43.2808C42.4928 136.065 41.7378 135.775 41.1283 135.275C40.5188 134.776 40.0875 134.093 39.8986 133.329L26.8601 72.8882C26.7667 72.557 26.7531 72.2085 26.8204 71.871C26.8876 71.5336 27.0339 71.2168 27.2472 70.9464C27.4604 70.6761 27.7347 70.4599 28.0476 70.3155C28.3606 70.171 28.7033 70.1024 29.0478 70.1153H68.025C68.813 70.1519 69.568 70.4416 70.1775 70.9414C70.787 71.4411 71.2183 72.124 71.4072 72.8882L84.4332 133.329C84.529 133.659 84.5449 134.007 84.4795 134.345C84.414 134.682 84.2691 135 84.0567 135.271C83.8443 135.541 83.5704 135.758 83.2577 135.902C82.945 136.047 82.6023 136.115 82.258 136.102Z" fill="#FF8D3C"/>
<path d="M42.9751 66.5224C42.9751 63.4947 45.4296 61.0402 48.4573 61.0402C51.485 61.0402 53.9395 63.4947 53.9395 66.5224H42.9751Z" fill="#D9D9D9"/>
<rect x="38.8506" y="65.9894" width="19.7968" height="7.42381" rx="2" fill="#D9D9D9"/>
<rect x="38.8506" y="71.7635" width="19.7968" height="1.64974" rx="0.824868" fill="#808080"/>
<rect x="63.897" y="88.743" width="13.1979" height="19.7968" rx="6.59894" transform="rotate(-46.3885 63.897 88.743)" fill="#FFE5E0"/>
</svg>
