<svg width="14" height="16" viewBox="0 0 14 16" fill="none" xmlns="http://www.w3.org/2000/svg">
<path d="M11.773 2.47701C13.0123 3.71611 13.7211 5.3886 13.7495 7.14082C13.7779 8.89305 13.1237 10.5876 11.9253 11.8663L11.773 12.0238L8.59079 15.2053C8.18701 15.6088 7.64495 15.8437 7.07441 15.8625C6.50387 15.8813 5.94751 15.6826 5.51804 15.3065L5.41004 15.2053L2.22704 12.023C0.961163 10.7571 0.25 9.04023 0.25 7.25001C0.25 5.45979 0.961163 3.74289 2.22704 2.47701C3.49292 1.21113 5.20982 0.499969 7.00004 0.499969C8.79026 0.499969 10.5072 1.21113 11.773 2.47701ZM7.00004 5.00001C6.70457 5.00001 6.41199 5.05821 6.139 5.17128C5.86602 5.28435 5.61798 5.45009 5.40905 5.65902C5.20012 5.86795 5.03439 6.11599 4.92131 6.38897C4.80824 6.66196 4.75004 6.95454 4.75004 7.25001C4.75004 7.54549 4.80824 7.83807 4.92131 8.11105C5.03439 8.38403 5.20012 8.63207 5.40905 8.841C5.61798 9.04993 5.86602 9.21567 6.139 9.32874C6.41199 9.44181 6.70457 9.50001 7.00004 9.50001C7.59678 9.50001 8.16908 9.26296 8.59103 8.841C9.01299 8.41904 9.25004 7.84675 9.25004 7.25001C9.25004 6.65327 9.01299 6.08098 8.59103 5.65902C8.16908 5.23706 7.59678 5.00001 7.00004 5.00001Z" fill="#979797"/>
</svg>
