<svg width="17" height="19" viewBox="0 0 17 19" fill="none" xmlns="http://www.w3.org/2000/svg">
<path d="M14.0837 2.41638C15.5984 3.93084 16.4646 5.97499 16.4993 8.1166C16.5341 10.2582 15.7345 12.3294 14.2698 13.8921L14.0837 14.0846L10.1943 17.9731C9.70079 18.4663 9.03827 18.7535 8.34094 18.7765C7.64362 18.7995 6.96362 18.5565 6.43872 18.0969L6.30672 17.9731L2.41638 14.0837C0.869199 12.5365 0 10.4381 0 8.25005C0 6.062 0.869199 3.96357 2.41638 2.41638C3.96357 0.869199 6.062 0 8.25005 0C10.4381 0 12.5365 0.869199 14.0837 2.41638ZM8.25005 5.50005C7.88892 5.50005 7.53132 5.57118 7.19767 5.70938C6.86403 5.84758 6.56087 6.05015 6.30551 6.30551C6.05015 6.56087 5.84758 6.86403 5.70938 7.19767C5.57118 7.53132 5.50005 7.88892 5.50005 8.25005C5.50005 8.61119 5.57118 8.96879 5.70938 9.30243C5.84758 9.63608 6.05015 9.93923 6.30551 10.1946C6.56087 10.45 6.86403 10.6525 7.19767 10.7907C7.53132 10.9289 7.88892 11.0001 8.25005 11.0001C8.9794 11.0001 9.67887 10.7103 10.1946 10.1946C10.7103 9.67887 11.0001 8.9794 11.0001 8.25005C11.0001 7.52071 10.7103 6.82123 10.1946 6.30551C9.67887 5.78978 8.9794 5.50005 8.25005 5.50005Z" fill="#686868"/>
</svg>