<svg width="22" height="29" viewBox="0 0 22 29" fill="none" xmlns="http://www.w3.org/2000/svg">
<path d="M11 0.75C12.8234 0.75 14.572 1.47433 15.8614 2.76364C17.1507 4.05295 17.875 5.80164 17.875 7.625V11.75C18.969 11.75 20.0182 12.1846 20.7918 12.9582C21.5654 13.7318 22 14.781 22 15.875V24.125C22 25.219 21.5654 26.2682 20.7918 27.0418C20.0182 27.8154 18.969 28.25 17.875 28.25H4.125C3.03098 28.25 1.98177 27.8154 1.20818 27.0418C0.434597 26.2682 0 25.219 0 24.125V15.875C0 14.781 0.434597 13.7318 1.20818 12.9582C1.98177 12.1846 3.03098 11.75 4.125 11.75V7.625C4.125 5.80164 4.84933 4.05295 6.13864 2.76364C7.42795 1.47433 9.17664 0.75 11 0.75ZM11 17.25C10.3062 17.2498 9.63797 17.5118 9.12925 17.9836C8.62052 18.4553 8.30891 19.1019 8.25688 19.7938L8.25 20C8.25 20.5439 8.41128 21.0756 8.71346 21.5278C9.01563 21.9801 9.44512 22.3325 9.94762 22.5407C10.4501 22.7488 11.0031 22.8033 11.5365 22.6972C12.0699 22.5911 12.5599 22.3291 12.9445 21.9445C13.3291 21.5599 13.5911 21.0699 13.6972 20.5365C13.8033 20.003 13.7488 19.4501 13.5407 18.9476C13.3325 18.4451 12.9801 18.0156 12.5278 17.7135C12.0756 17.4113 11.5439 17.25 11 17.25ZM11 3.5C9.90598 3.5 8.85677 3.9346 8.08318 4.70818C7.3096 5.48177 6.875 6.53098 6.875 7.625V11.75H15.125V7.625C15.125 6.53098 14.6904 5.48177 13.9168 4.70818C13.1432 3.9346 12.094 3.5 11 3.5Z" fill="#979797"/>
</svg>
