<svg width="393" height="219" viewBox="0 0 393 219" fill="none" xmlns="http://www.w3.org/2000/svg">
<mask id="mask0_765_6393" style="mask-type:alpha" maskUnits="userSpaceOnUse" x="0" y="0" width="393" height="219">
<rect y="0.216858" width="393" height="218.783" fill="#D9D9D9"/>
</mask>
<g mask="url(#mask0_765_6393)">
<rect width="15.4501" height="23.1776" rx="6.23673" transform="matrix(-0.690546 -0.723289 -0.724777 0.688984 204.611 105.974)" fill="#FFE5E0"/>
<rect x="99.2207" y="82.2474" width="18.7338" height="23.4982" fill="#FFE5E0"/>
<ellipse cx="108.588" cy="89.0051" rx="9.36692" ry="5.42265" fill="#FFCFC6"/>
<ellipse cx="28.0952" cy="29.8246" rx="28.0952" ry="29.8246" transform="matrix(-1 0 0 1 134.845 31.3074)" fill="#FFE5E0"/>
<ellipse cx="1.99729" cy="2.79037" rx="1.99729" ry="2.79037" transform="matrix(0.991766 -0.128061 0.128606 0.991696 115.474 60.4899)" fill="#240B09"/>
<ellipse cx="1.99729" cy="2.79037" rx="1.99729" ry="2.79037" transform="matrix(0.991766 -0.128061 0.128606 0.991696 102.841 61.1681)" fill="#240B09"/>
<path d="M114.559 72.244C113.58 72.8763 111.124 73.7053 109.132 71.9632" stroke="#240B09" stroke-width="1.12419" stroke-linecap="round"/>
<path d="M112.349 66.2074L112.717 67.977" stroke="#FFB3A4" stroke-width="1.12419" stroke-linecap="round"/>
<path d="M86.7478 101.054L99.1858 98.1034C107.148 105.972 115.405 101.218 117.985 97.6116L127.937 101.054L136.231 103.513C139.41 104.828 142.309 106.249 144.699 107.746C149.956 111.038 152.742 116.981 156.011 122.252L157.373 124.447L78.1875 127.899L70.851 147.116L106.62 131.199L112.904 141.328C95.8892 177.984 68.7562 171.875 57.8 165.926C47.3594 158.981 53.4499 138.595 57.8002 128.788L63.6006 118.177C67.9508 110.459 82.5088 101.874 86.7478 101.054Z" fill="#FFC778"/>
<path d="M103.721 56.4209C102.874 55.981 100.851 55.6712 99.5329 57.9507" stroke="#402724" stroke-width="1.12419" stroke-linecap="round"/>
<ellipse cx="135.538" cy="65.943" rx="9.04052" ry="9.02102" fill="#FFE5E0"/>
<ellipse cx="78.2445" cy="65.943" rx="9.04052" ry="9.02102" fill="#FFE5E0"/>
<path d="M114.367 41.5309C118.169 51.1668 130.97 56.2379 136.529 58.1532C137.243 32.1062 119.025 25.0967 109.828 24.8478C82.7984 22.616 73.48 46.6534 74.8004 58.0155C95.8792 57.6083 110.202 46.8128 114.367 41.5309Z" fill="#251812"/>
<path d="M162.206 121.553L142.388 107.566L130.304 126.858L156.721 145.23C159.877 147.425 164.163 146.991 166.816 144.208L190.241 119.624L180.574 107.566L162.206 121.553Z" fill="#FFC778"/>
<path d="M148.672 225.252L139.488 121.07L78.1012 125.411L65.5338 225.252H148.672Z" fill="#FFC778"/>
<path d="M106.33 182.323H151.367C152.277 182.282 153.148 181.949 153.852 181.372C154.555 180.796 155.052 180.007 155.268 179.125L170.325 109.318C170.435 108.937 170.453 108.536 170.377 108.146C170.302 107.757 170.134 107.391 169.889 107.079C169.644 106.767 169.328 106.517 168.967 106.35C168.606 106.184 168.21 106.105 167.813 106.12H122.79C121.878 106.158 121.003 106.491 120.297 107.067C119.591 107.644 119.092 108.434 118.875 109.318L103.818 179.125C103.708 179.506 103.69 179.908 103.765 180.297C103.841 180.687 104.009 181.053 104.254 181.365C104.499 181.677 104.815 181.927 105.176 182.093C105.537 182.26 105.932 182.339 106.33 182.323Z" fill="#FFC778"/>
<path d="M105.754 183.288H151.435C152.358 183.245 153.243 182.906 153.957 182.322C154.672 181.737 155.177 180.939 155.399 180.045L170.679 109.363C170.789 108.976 170.805 108.568 170.726 108.174C170.647 107.779 170.476 107.408 170.226 107.092C169.976 106.776 169.654 106.523 169.288 106.354C168.921 106.186 168.519 106.105 168.116 106.12H122.435C121.512 106.163 120.627 106.502 119.913 107.086C119.198 107.671 118.693 108.469 118.471 109.363L103.205 180.045C103.093 180.431 103.074 180.839 103.151 181.233C103.228 181.628 103.397 181.999 103.646 182.316C103.895 182.633 104.216 182.886 104.583 183.055C104.949 183.224 105.351 183.304 105.754 183.288Z" fill="white"/>
<path d="M109.269 183.288H154.95C155.873 183.245 156.758 182.906 157.472 182.322C158.187 181.737 158.692 180.939 158.914 180.045L174.194 109.363C174.304 108.976 174.32 108.568 174.241 108.174C174.162 107.779 173.991 107.408 173.741 107.092C173.491 106.776 173.169 106.523 172.803 106.354C172.436 106.186 172.034 106.105 171.63 106.12H125.95C125.027 106.163 124.142 106.502 123.427 107.086C122.713 107.671 122.208 108.469 121.986 109.363L106.72 180.045C106.608 180.431 106.589 180.839 106.666 181.233C106.743 181.628 106.912 181.999 107.161 182.316C107.41 182.633 107.731 182.886 108.098 183.055C108.464 183.224 108.866 183.304 109.269 183.288Z" fill="#FF8D3C"/>
<path d="M155.308 101.919C155.308 98.378 152.424 95.5076 148.883 95.5076C145.342 95.5076 142.458 98.378 142.458 101.919H155.308Z" fill="#D9D9D9"/>
<rect width="23.2014" height="8.68176" rx="1.55918" transform="matrix(-1 0 0 1 160.141 101.295)" fill="#D9D9D9"/>
<rect width="23.2014" height="1.92928" rx="0.96464" transform="matrix(-1 0 0 1 160.141 108.048)" fill="#808080"/>
<rect width="15.4501" height="23.1776" rx="6.23673" transform="matrix(-0.690546 -0.723289 -0.724777 0.688984 130.788 127.905)" fill="#FFE5E0"/>
<ellipse cx="265.436" cy="63.9254" rx="9.04052" ry="9.02102" fill="#FFE5E0"/>
<path d="M213.241 122.784L238.403 112.036L244.255 131.153L217.966 138.653L213.241 122.784Z" fill="#FFE5E0"/>
<path d="M313.914 90.7697C309.663 86.5547 307.772 78.4682 307.333 74.22L315.231 68.8975C333.236 80.9389 325.386 97.9273 319.21 104.916C320.512 101.817 320.15 98.8379 319.317 96.5517C318.398 94.027 315.823 92.6619 313.914 90.7697Z" fill="#251812"/>
<rect x="282.449" y="78.3889" width="18.7338" height="23.4982" fill="#FFE5E0"/>
<ellipse cx="291.815" cy="85.1465" rx="9.36692" ry="5.42265" fill="#FFCFC6"/>
<ellipse cx="28.0952" cy="29.8246" rx="28.0952" ry="29.8246" transform="matrix(-1 0 0 1 318.073 27.4489)" fill="#FFE5E0"/>
<path d="M299.825 37.2529C303.439 46.9604 316.139 52.2777 321.661 54.3001C322.879 28.2717 304.801 20.9117 295.61 20.4853C268.629 17.7318 258.846 41.5848 259.946 52.9702C281.029 52.9702 295.558 42.4533 299.825 37.2529Z" fill="#251812"/>
<ellipse cx="1.99733" cy="2.79031" rx="1.99733" ry="2.79031" transform="matrix(-0.997115 0.0759055 0.076232 0.99709 271.184 58.058)" fill="#240B09"/>
<ellipse cx="1.99733" cy="2.79031" rx="1.99733" ry="2.79031" transform="matrix(-0.997115 0.0759055 0.076232 0.99709 283.691 56.1579)" fill="#240B09"/>
<path d="M274.476 69.3807C275.564 69.801 278.138 70.1141 279.733 68.0042" stroke="#240B09" stroke-width="1.12419" stroke-linecap="round"/>
<path d="M275.409 63.0215V64.829" stroke="#FFB3A4" stroke-width="1.12419" stroke-linecap="round"/>
<path d="M269.975 97.1955L282.413 94.245C290.375 102.113 298.632 97.3594 301.213 93.7532L311.165 97.1955L319.459 99.6543C327.036 102.791 332.544 109.981 333.835 113.915L338.687 127.087L243.709 127.193L249.238 113.915C251.892 104.474 265.736 98.0151 269.975 97.1955Z" fill="#8DB2FE"/>
<path d="M281.862 51.6885C282.602 51.086 284.519 50.372 286.275 52.3363" stroke="#402724" stroke-width="1.12419" stroke-linecap="round"/>
<path d="M313.922 97.9954L308.474 96.2591L308.021 114.335H314.361L313.922 97.9954Z" fill="#53917C"/>
<path d="M267.154 97.9957L269.563 97.2602L272.366 96.6295L273.054 114.335H266.714L267.154 97.9957Z" fill="#53917C"/>
<path d="M238.812 110.668L262.024 101.828L255.413 125.937L243.083 132.202L238.812 110.668Z" fill="#8DB2FE" stroke="#8DB2FE" stroke-width="2.24838" stroke-linecap="round"/>
<ellipse cx="318.766" cy="57.2735" rx="9.04052" ry="9.02102" fill="#FFE5E0"/>
<path d="M262.485 172.42L255.976 125.925L318.673 123.874L338.685 127.07L341.086 143.257H316.918L324.377 239.289L242.206 234.466L262.485 172.42Z" fill="#8DB2FE"/>
<path d="M266.634 110.936C266.734 110.405 267.198 110.021 267.738 110.021H313.198C313.772 110.021 314.253 110.452 314.316 111.022L327.069 226.699L245.14 224.693L266.634 110.936Z" fill="#53917C"/>
<path d="M298.539 156.666C304.667 153.19 315.946 145.845 317.838 144.272H321.322H336.736C336.373 173.965 309.393 178.517 296.299 176.037L251.873 164.861V150.333L298.539 156.666Z" fill="#FFE5E0" stroke="#FFE5E0" stroke-width="1.55918" stroke-linecap="round"/>
<path d="M241.159 155.2C240.62 155.2 240.103 154.987 239.721 154.606C239.34 154.226 239.126 153.71 239.126 153.172V137.632C239.126 134.656 240.275 131.793 242.335 129.64C244.394 127.487 247.206 126.208 250.186 126.069L263.306 125.433C263.845 125.408 264.372 125.598 264.771 125.96C265.17 126.323 265.408 126.829 265.434 127.367C265.459 127.905 265.269 128.431 264.905 128.829C264.542 129.228 264.035 129.465 263.495 129.491L250.376 130.126C248.439 130.217 246.611 131.049 245.273 132.449C243.935 133.85 243.19 135.711 243.192 137.646V153.185C243.188 153.721 242.973 154.233 242.592 154.611C242.211 154.989 241.696 155.2 241.159 155.2Z" fill="#263238"/>
<rect x="164.186" y="150.675" width="8.68164" height="74.1946" rx="3.50055" fill="#D9D9D9"/>
<rect x="172.876" y="180.396" width="66.704" height="63.6662" rx="3.50055" fill="#D9D9D9"/>
<rect x="189.299" y="173.421" width="18.1146" height="21.7942" fill="#FFE5E0"/>
<ellipse cx="198.357" cy="180.224" rx="9.05729" ry="5.42265" fill="#FFCFC6"/>
<ellipse cx="172.08" cy="158.958" rx="9.04052" ry="9.02102" fill="#FFE5E0"/>
<ellipse cx="225.41" cy="152.306" rx="9.04052" ry="9.02102" fill="#FFE5E0"/>
<ellipse cx="28.0952" cy="29.8246" rx="28.0952" ry="29.8246" transform="matrix(-1 0 0 1 224.717 122.481)" fill="#FFE5E0"/>
<ellipse cx="1.99733" cy="2.79031" rx="1.99733" ry="2.79031" transform="matrix(0.997115 0.0759055 -0.076232 0.99709 206.816 151.53)" fill="#240B09"/>
<ellipse cx="1.99733" cy="2.79031" rx="1.99733" ry="2.79031" transform="matrix(0.997115 0.0759055 -0.076232 0.99709 193.453 151.19)" fill="#240B09"/>
<path d="M198.546 163.465C199.725 163.996 202.626 164.574 204.804 162.634" stroke="#240B09" stroke-width="1.12419" stroke-linecap="round"/>
<path d="M197.669 160.255C196.515 160.913 193.925 163.131 192.794 166.74" stroke="#FFB3A4" stroke-width="1.12419" stroke-linecap="round"/>
<path d="M201.735 158.054V159.861" stroke="#FFB3A4" stroke-width="1.12419" stroke-linecap="round"/>
<path d="M195.048 145.941C194.143 145.638 192.096 145.648 191.151 148.105" stroke="#402724" stroke-width="1.12419" stroke-linecap="round"/>
<path d="M144.856 146.686C148.25 143.72 154.704 145.402 159.361 147.261C159.361 147.062 159.361 146.885 159.361 146.686C159.242 143.27 159.953 139.876 161.432 136.793C162.911 133.71 165.115 131.03 167.856 128.98C167.856 121.544 173.623 118.269 179.966 116.299C186.309 114.329 191.832 118.047 199.284 114.551C200.498 113.851 201.84 113.402 203.232 113.233C204.623 113.064 206.034 113.177 207.381 113.565C208.727 113.954 209.981 114.61 211.067 115.495C212.153 116.379 213.049 117.473 213.701 118.711C215.63 122.208 214.787 127.276 220.998 127.453C227.208 127.63 225.7 133.429 224.502 136.527C223.304 139.626 223.637 138.74 225.611 142.171C226.964 144.517 224.945 145.999 223.504 146.597C223.748 148.235 223.792 149.253 223.792 149.253C223.615 148.368 223.415 147.527 223.193 146.73C214.322 113.024 181.408 132.964 181.408 132.964C184.601 144.583 178.302 161.27 178.302 161.27C175.53 168.684 179.611 176.165 182.184 179.861C182.747 180.688 183.361 181.479 184.025 182.229C182.881 181.541 181.804 180.748 180.809 179.861C167.501 179.396 168.122 172.181 168.144 169.791C167.869 168.673 167.363 167.625 166.658 166.714C164.44 171.008 159.761 176.674 151.443 174.837C138.491 172.048 139.156 151.687 144.856 146.686Z" fill="#D2D3D5"/>
<path d="M176.151 192.03L188.589 189.08C196.551 196.948 204.808 192.194 207.388 188.588L217.341 192.03L225.635 194.489C233.212 197.626 238.72 204.816 240.01 208.75L244.987 222.028V256.602H149.885V222.028L155.414 208.75C158.068 199.308 171.912 192.85 176.151 192.03Z" fill="#B3CAFF"/>
<rect x="236.731" y="150.675" width="8.68164" height="74.1946" rx="3.50055" fill="#D9D9D9"/>
<ellipse cx="246.861" cy="157.058" rx="13.0023" ry="12.3618" fill="#FFE5E0"/>
</g>
</svg>
