<svg width="171" height="73" viewBox="0 0 171 73" fill="none" xmlns="http://www.w3.org/2000/svg">
<path d="M4.42942 29.2594C4.42942 20.3831 14.1397 16.9279 25.3393 16.9279C36.1815 16.9279 46.2493 20.4426 46.2493 29.2594C46.2493 36.7655 39.3389 40.3398 30.5817 41.3526V43.7355C36.4198 43.6759 41.9005 43.4376 45.4748 43.0206C47.679 42.8419 50.7172 43.6163 50.8364 46.9524C50.9555 50.0501 48.6917 51.4799 46.6067 51.8373C39.5176 52.7309 12.7696 52.9692 4.54857 51.8373C2.28481 51.4799 0.0210604 50.1097 0.318923 46.7737C0.557212 43.8546 3.59541 42.8419 5.68044 43.0206C9.31436 43.378 14.7355 43.6163 20.5736 43.7355V41.3526C11.5185 40.459 4.42942 36.8251 4.42942 29.2594ZM14.3184 29.2594C14.3184 31.7614 18.6077 32.8337 25.3393 32.8337C32.3689 32.8337 36.3603 31.7018 36.3603 29.2594C36.3603 26.7573 32.1306 25.685 25.3393 25.685C18.2502 25.685 14.3184 26.6382 14.3184 29.2594ZM15.0333 58.7477C14.9737 59.2243 14.8546 60.0583 14.8546 60.8923C14.8546 61.3689 15.212 62.0242 16.2248 62.1433C18.846 62.5603 23.433 62.8582 26.5308 62.8582C31.8327 62.8582 37.3134 62.2029 41.0665 60.9519C43.6877 60.0583 46.3684 60.9519 47.0833 63.5135C47.7982 65.5985 46.7854 67.9219 44.76 68.875C40.1133 71.0792 32.071 71.4962 26.5308 71.5558C20.9906 71.5558 13.4249 71.0196 9.96966 69.6495C8.24206 68.9942 5.74002 67.1474 5.32301 64.4667C4.906 61.8455 5.08472 58.9264 5.50173 56.5435C5.91873 54.1011 8.71864 53.1479 11.1611 53.6245C13.6036 54.0415 15.3908 56.1265 15.0333 58.7477Z" fill="#FF8D3C"/>
<path d="M68.9101 32.9528C68.9697 33.7273 69.4462 34.323 70.3994 34.5017C72.4844 34.8592 75.6418 35.157 80.0501 35.157C84.8755 35.157 89.403 34.4422 93.5135 33.3699C96.0751 32.7146 98.8154 33.489 99.5303 36.2293C100.126 38.4335 99.292 40.876 97.207 41.8887C92.5603 44.1525 85.1138 44.5695 79.5735 44.629C74.0333 44.629 67.659 44.0929 64.1443 42.7227C62.4167 42.0079 60.0933 40.2803 59.5572 37.5995C58.7828 33.3699 58.9019 27.7105 59.4381 23.5404C59.7955 20.8001 62.2975 18.7746 63.906 18.7746H94.5262C96.9091 18.7746 98.2793 20.9192 98.2793 23.3617C98.2793 25.3871 97.1474 28.1275 94.5262 28.1275H70.3398C69.4462 28.1275 68.9697 28.5445 68.9101 29.0211C68.7909 30.0338 68.7909 31.6422 68.9101 32.9528ZM58.187 56.9605C55.9233 56.6031 53.5404 54.9351 53.9574 51.599C54.3148 48.5608 57.1743 47.1907 59.3189 47.4885C68.5526 48.3821 89.9391 48.5608 99.0537 47.4885C101.437 47.1907 104.177 48.5012 104.475 51.7777C104.773 55.0542 102.33 56.6031 100.245 56.9605C98.8154 57.1393 96.4921 57.318 93.7518 57.4371V68.6367C93.7518 70.8409 90.9519 72.2111 88.6881 72.2111C86.4839 72.2111 83.7436 70.8409 83.7436 68.6367V57.6754C80.9437 57.735 78.0842 57.735 75.2843 57.735V68.6367C75.2843 70.8409 72.4844 72.2111 70.2207 72.2111C68.0165 72.2111 65.2762 70.8409 65.2762 68.6367V57.4967C62.2975 57.3775 59.8551 57.1988 58.187 56.9605Z" fill="#FF8D3C"/>
<path d="M136.368 3.53127C136.368 0.509363 139.994 -1.03937 142.178 1.05193C148.902 7.49409 152.81 21.6387 148.188 32.3699L147.931 32.9288C147.921 32.9489 147.933 32.9724 147.954 32.9777C150.1 33.4344 152.085 31.5011 155.862 25.5157L156.343 24.7465C156.622 24.2979 157 23.9197 157.449 23.6412C157.897 23.3627 158.404 23.1913 158.93 23.1405C159.455 23.0897 159.985 23.1607 160.479 23.3481C160.973 23.5355 161.416 23.8342 161.776 24.221C166.357 29.1488 170.708 39.2516 170.708 45.7522C170.708 60.3981 158.376 72.211 143.236 72.211C128.095 72.211 115.764 60.3981 115.764 45.7487C115.764 38.0154 119.273 29.554 124.802 24.1112L126.88 22.0885C127.707 21.2781 128.37 20.6119 129.002 19.9457C133.912 14.7535 136.368 9.90475 136.368 3.53127Z" fill="url(#paint0_linear_765_4595)"/>
<path d="M136.927 43.0921C138.041 42.9023 139.183 42.9649 140.27 43.2753C141.356 43.5856 142.359 44.1359 143.205 44.8855L143.251 44.927L143.294 44.8892C144.101 44.1811 145.05 43.6531 146.077 43.3406C147.104 43.0281 148.186 42.9382 149.251 43.077L149.56 43.1223C150.902 43.354 152.157 43.9443 153.19 44.8307C154.224 45.7171 154.999 46.8666 155.433 48.1575C155.867 49.4483 155.944 50.8325 155.655 52.1634C155.367 53.4943 154.724 54.7224 153.794 55.7177L153.567 55.9505L153.507 56.0021L144.131 64.1047C143.915 64.3189 143.628 64.4473 143.324 64.4663C143.02 64.4853 142.72 64.3935 142.478 64.2079L142.36 64.1047L132.93 55.948C131.931 54.976 131.22 53.7464 130.877 52.3955C130.534 51.0446 130.571 49.625 130.985 48.294C131.399 46.963 132.173 45.7725 133.222 44.8543C134.271 43.9362 135.553 43.3263 136.927 43.0921Z" fill="white"/>
<defs>
<linearGradient id="paint0_linear_765_4595" x1="142.671" y1="-2.46364" x2="142.671" y2="72.3214" gradientUnits="userSpaceOnUse">
<stop stop-color="#FFE8A4"/>
<stop offset="0.635" stop-color="#FF8D3C"/>
<stop offset="1" stop-color="#FF710C"/>
</linearGradient>
</defs>
</svg>
