<svg width="255" height="17" viewBox="0 0 255 17" fill="none" xmlns="http://www.w3.org/2000/svg">
<path d="M12.7939 0.955231V4.84H15.0791V6.24625H12.7939V10.1662H11.124V0.955231H12.7939ZM8.43457 1.92203C8.43457 5.98257 5.69238 8.81265 1.0166 10.0255L0.331055 8.74234C4.11035 7.75797 6.35156 5.76285 6.6416 3.27554H1.08691V1.92203H8.43457ZM12.7939 10.8517V16.7052H11.124V12.2052H2.3877V10.8517H12.7939ZM21.46 5.59586C21.46 8.09195 23.0947 10.8693 25.4854 11.9943L24.5361 13.2951C22.7695 12.4425 21.3721 10.6671 20.6689 8.60172C19.9395 10.8605 18.4629 12.8029 16.6611 13.6994L15.6768 12.381C18.0674 11.2384 19.8076 8.26773 19.8076 5.59586V3.92593H16.2568V2.53726H24.8877V3.92593H21.46V5.59586ZM28.2451 0.955231V7.19547H30.7764V8.60172H28.2451V16.7052H26.5752V0.955231H28.2451ZM36.665 2.08023C39.1611 2.06265 40.9365 3.60953 40.9541 5.82437C40.9365 8.03922 39.1611 9.58609 36.665 9.58609C34.1865 9.58609 32.3584 8.03922 32.376 5.82437C32.3584 3.60953 34.1865 2.06265 36.665 2.08023ZM36.665 3.52164C35.1357 3.52164 34.0107 4.4357 34.0283 5.82437C34.0107 7.21304 35.1357 8.12711 36.665 8.12711C38.1943 8.12711 39.3193 7.21304 39.3193 5.82437C39.3193 4.4357 38.1943 3.52164 36.665 3.52164ZM44.5576 0.955231V16.7404H42.8877V0.955231H44.5576ZM31.6201 11.9591C34.4854 11.9591 38.458 11.924 41.9033 11.4318L42.0264 12.6447C38.458 13.3302 34.6436 13.3478 31.8311 13.3478L31.6201 11.9591ZM65.8447 9.25211V10.6232H51.4834V9.25211H57.8291V7.72281C54.876 7.55582 53.0303 6.41324 53.0303 4.55875C53.0303 2.60757 55.2275 1.41226 58.6553 1.39468C62.0654 1.41226 64.2803 2.60757 64.2803 4.55875C64.2803 6.41324 62.417 7.55582 59.4814 7.72281V9.25211H65.8447ZM64.2275 15.0177V16.3712H53.2939V11.8009H54.9814V15.0177H64.2275ZM58.6553 2.7482C56.2471 2.7482 54.7354 3.43375 54.7529 4.55875C54.7354 5.75406 56.2471 6.40445 58.6553 6.40445C61.0635 6.40445 62.5576 5.75406 62.5576 4.55875C62.5576 3.43375 61.0635 2.7482 58.6553 2.7482ZM80.1357 0.955231V16.7052H78.4482V0.955231H80.1357ZM75.4424 2.64273C75.4424 7.2482 73.4736 11.256 68.0771 13.84L67.1982 12.4865C71.3906 10.4914 73.4297 7.6525 73.7549 3.97867H67.9541V2.64273H75.4424ZM96.1494 0.955231V16.7052H94.5498V0.955231H96.1494ZM92.9502 1.25406V15.9318H91.3506V8.33804H89.5752C89.4346 11.4142 88.1162 13.3302 86.165 13.3127C84.1084 13.3302 82.7725 11.1681 82.7725 7.75797C82.7725 4.34781 84.1084 2.20328 86.165 2.22086C88.0811 2.20328 89.3818 4.02261 89.5752 6.98453H91.3506V1.25406H92.9502ZM86.165 3.78531C85.0225 3.78531 84.3193 5.24429 84.3193 7.75797C84.3193 10.2716 85.0225 11.7306 86.165 11.7306C87.3252 11.7306 88.0459 10.2716 88.0459 7.75797C88.0459 5.24429 87.3252 3.78531 86.165 3.78531ZM110.528 2.00992V8.79507H103.163V2.00992H110.528ZM104.798 3.34586V7.45914H108.894V3.34586H104.798ZM114.923 0.955231V4.61148H117.208V6.00015H114.923V9.88492H113.253V0.955231H114.923ZM115.169 10.7638V12.0998H110.862C111.091 13.5939 113.139 14.9738 115.819 15.3693L115.204 16.6525C112.813 16.2834 110.845 15.1847 109.931 13.6818C109.034 15.1935 107.074 16.2834 104.692 16.6349L104.077 15.3517C106.775 14.9738 108.779 13.6378 109.052 12.0998H104.71V10.7638H115.169ZM126.103 0.955231V2.60757H131.024V3.90836H126.208C126.366 5.55191 128.528 6.78238 131.657 7.07242L131.112 8.35562C128.432 8.08316 126.243 7.11636 125.276 5.5607C124.31 7.11636 122.121 8.08316 119.44 8.35562L118.896 7.07242C122.007 6.78238 124.169 5.55191 124.362 3.90836H119.546V2.60757H124.45V0.955231H126.103ZM132.501 9.21695V10.5529H126.243V13.506H124.591V10.5529H118.087V9.21695H132.501ZM130.901 15.0177V16.3712H119.88V12.0119H121.55V15.0177H130.901ZM150.325 0.955231V7.23062H152.769V8.61929H150.325V16.6877H148.655V0.955231H150.325ZM146.212 2.60757C146.194 7.16031 144.19 11.2209 139.005 13.7873L138.073 12.4865C142.02 10.5177 144.164 7.67007 144.507 3.99625H138.864V2.60757H146.212ZM159.114 3.85562C159.114 5.85953 160.503 7.68765 162.894 8.44351L162.103 9.74429C160.31 9.173 159 7.98648 158.306 6.49234C157.62 8.215 156.24 9.5773 154.351 10.2365L153.489 8.90054C155.95 8.09195 157.427 6.05289 157.444 3.8732V3.43375H153.981V2.08023H162.507V3.43375H159.114V3.85562ZM165.987 0.955231V4.85757H168.272V6.22867H165.987V10.4123H164.317V0.955231H165.987ZM160.907 10.799C164.159 10.799 166.128 11.8712 166.128 13.7169C166.128 15.5802 164.159 16.6877 160.907 16.6701C157.62 16.6877 155.616 15.5802 155.616 13.7169C155.616 11.8712 157.62 10.799 160.907 10.799ZM160.907 12.1173C158.622 12.1173 157.269 12.6974 157.286 13.7169C157.269 14.7716 158.622 15.3517 160.907 15.3517C163.175 15.3517 164.493 14.7716 164.493 13.7169C164.493 12.6974 163.175 12.1173 160.907 12.1173ZM186.114 0.920074V7.03726H188.276V8.44351H186.114V16.7052H184.444V0.920074H186.114ZM178.028 2.57242V3.94351H175.655V11.256C176.411 11.2296 177.246 11.1505 178.169 10.9572L178.31 12.3459C176.886 12.6271 175.761 12.6623 174.706 12.6623H173.985V2.57242H178.028ZM183.108 2.57242V3.94351H180.542V11.256C181.693 11.2472 182.563 11.1681 183.53 10.922L183.671 12.3107C182.405 12.6271 181.368 12.6623 179.681 12.6623H178.907V2.57242H183.108ZM203.481 8.42593V9.79703H189.12V8.42593H203.481ZM202.233 5.77164V7.10757H196.767V1.72867H202.11V3.06461H198.437V5.77164H202.233ZM195.905 1.72867V3.06461H192.144V5.75406C193.462 5.74527 194.692 5.64859 196.081 5.34976L196.239 6.70328C194.517 7.07242 193.058 7.10757 191.388 7.10757H190.474V1.72867H195.905ZM197.153 11.3615C197.153 13.3302 199.351 14.9123 202.444 15.3166L201.812 16.6349C199.333 16.257 197.276 15.1671 196.327 13.5412C195.352 15.1671 193.304 16.257 190.825 16.6349L190.21 15.3166C193.269 14.9123 195.466 13.3302 195.466 11.3615V10.922H197.153V11.3615ZM217.052 0.972809V6.03531H219.337V7.42398H217.052V12.7502H215.382V0.972809H217.052ZM214.081 2.80093V4.15445H204.694V2.80093H208.562V0.955231H210.231V2.80093H214.081ZM209.388 4.91031C211.655 4.91031 213.202 6.08804 213.202 7.88101C213.202 9.67398 211.655 10.8341 209.388 10.8341C207.103 10.8341 205.556 9.67398 205.556 7.88101C205.556 6.08804 207.103 4.91031 209.388 4.91031ZM209.388 6.19351C208.052 6.19351 207.155 6.8439 207.173 7.88101C207.155 8.90054 208.052 9.53336 209.388 9.53336C210.724 9.53336 211.62 8.90054 211.638 7.88101C211.62 6.8439 210.724 6.19351 209.388 6.19351ZM217.72 15.0177V16.3712H207.067V11.8185H208.737V15.0177H217.72ZM237.302 4.98062V6.31656H232.644V7.67007H238.989V9.00601H224.628V7.67007H230.974V6.31656H226.509V1.53531H237.144V2.88882H228.179V4.98062H237.302ZM237.179 10.1837V13.8576H228.003V15.2462H237.618V16.547H226.368V12.6623H235.526V11.4318H226.351V10.1837H237.179ZM254.546 8.72476V10.0959H240.185V8.72476H246.53V7.14273H242.065V1.28922H243.718V2.95914H251.013V1.28922H252.683V7.14273H248.183V8.72476H254.546ZM243.718 5.80679H251.013V4.22476H243.718V5.80679ZM252.788 11.3966V16.5119H241.907V11.3966H252.788ZM243.56 12.715V15.1584H251.171V12.715H243.56Z" fill="#686868"/>
</svg>
