<svg width="32" height="32" viewBox="0 0 32 32" fill="none" xmlns="http://www.w3.org/2000/svg">
<g clip-path="url(#clip0_628_2317)">
<path d="M23.9962 5.56002C24.7771 5.8352 25.4534 6.34595 25.9318 7.02182C26.4101 7.69768 26.667 8.50533 26.6668 9.33335V25.3334C26.6668 26.3942 26.2454 27.4116 25.4953 28.1618C24.7451 28.9119 23.7277 29.3334 22.6668 29.3334H9.3335C8.27263 29.3334 7.25521 28.9119 6.50507 28.1618C5.75492 27.4116 5.3335 26.3942 5.3335 25.3334V9.33335C5.33335 8.50533 5.59018 7.69768 6.06854 7.02182C6.54689 6.34595 7.22321 5.8352 8.00416 5.56002C8.06262 6.93416 8.64968 8.2326 9.64275 9.18418C10.6358 10.1358 11.9581 10.6669 13.3335 10.6667H18.6668C19.9884 10.6668 21.2629 10.1763 22.2433 9.29017C23.2238 8.40406 23.8404 7.1855 23.9735 5.87069L23.9962 5.56002ZM12.0002 16C11.6465 16 11.3074 16.1405 11.0574 16.3905C10.8073 16.6406 10.6668 16.9797 10.6668 17.3334V22.6667C10.6668 23.0203 10.8073 23.3594 11.0574 23.6095C11.3074 23.8595 11.6465 24 12.0002 24C12.3538 24 12.6929 23.8595 12.943 23.6095C13.193 23.3594 13.3335 23.0203 13.3335 22.6667V17.3334C13.3335 16.9797 13.193 16.6406 12.943 16.3905C12.6929 16.1405 12.3538 16 12.0002 16ZM16.0002 20C15.6465 20 15.3074 20.1405 15.0574 20.3905C14.8073 20.6406 14.6668 20.9797 14.6668 21.3334V22.6667C14.6668 23.0203 14.8073 23.3594 15.0574 23.6095C15.3074 23.8595 15.6465 24 16.0002 24L16.1562 23.9907C16.4805 23.9525 16.7795 23.7966 16.9965 23.5525C17.2136 23.3085 17.3335 22.9933 17.3335 22.6667V21.3334C17.3335 20.9797 17.193 20.6406 16.943 20.3905C16.6929 20.1405 16.3538 20 16.0002 20ZM20.0002 18.6667C19.6465 18.6667 19.3074 18.8072 19.0574 19.0572C18.8073 19.3073 18.6668 19.6464 18.6668 20V22.6667C18.6668 23.0203 18.8073 23.3594 19.0574 23.6095C19.3074 23.8595 19.6465 24 20.0002 24C20.3538 24 20.6929 23.8595 20.943 23.6095C21.193 23.3594 21.3335 23.0203 21.3335 22.6667V20C21.3335 19.6464 21.193 19.3073 20.943 19.0572C20.6929 18.8072 20.3538 18.6667 20.0002 18.6667ZM18.6668 2.66669C19.3741 2.66669 20.0524 2.94764 20.5524 3.44774C21.0525 3.94783 21.3335 4.62611 21.3335 5.33335C21.3335 6.0406 21.0525 6.71887 20.5524 7.21897C20.0524 7.71907 19.3741 8.00002 18.6668 8.00002H13.3335C12.6263 8.00002 11.948 7.71907 11.4479 7.21897C10.9478 6.71887 10.6668 6.0406 10.6668 5.33335C10.6668 4.62611 10.9478 3.94783 11.4479 3.44774C11.948 2.94764 12.6263 2.66669 13.3335 2.66669H18.6668Z" fill="#808080"/>
</g>
<defs>
<clipPath id="clip0_628_2317">
<rect width="32" height="32" fill="white"/>
</clipPath>
</defs>
</svg>
