<svg width="32" height="32" viewBox="0 0 32 32" fill="none" xmlns="http://www.w3.org/2000/svg">
<g clip-path="url(#clip0_628_2312)">
<path d="M26.0615 4.71254L26.1793 4.70587L26.3238 4.71476L26.4239 4.73255L26.5606 4.77146L26.6796 4.82259L26.7907 4.88595L26.8908 4.96043L26.9819 5.04381L27.0397 5.10939L27.1309 5.23834L27.1887 5.34506C27.2409 5.45622 27.2743 5.57405 27.2887 5.69633L27.2943 5.81416C27.2943 5.89753 27.2854 5.97979 27.2676 6.05872L27.2287 6.19545L19.9676 26.2903C19.8299 26.59 19.6092 26.8438 19.3315 27.0217C19.0539 27.1997 18.731 27.2942 18.4013 27.2941C18.1043 27.295 17.8121 27.219 17.5532 27.0735C17.2943 26.928 17.0775 26.7179 16.9239 26.4637L16.8517 26.3225L13.1255 18.8724L5.71096 15.164C5.43662 15.0386 5.20002 14.8433 5.02484 14.5977C4.84966 14.3521 4.74203 14.0648 4.71272 13.7645L4.70605 13.5989C4.70605 12.9764 5.04065 12.4072 5.64093 12.0759L5.79656 11.9981L25.8247 4.7659L25.9426 4.73255L26.0615 4.71254Z" fill="#808080"/>
</g>
<defs>
<clipPath id="clip0_628_2312">
<rect width="32" height="32" fill="white"/>
</clipPath>
</defs>
</svg>
