<svg width="32" height="32" viewBox="0 0 32 32" fill="none" xmlns="http://www.w3.org/2000/svg">
<g clip-path="url(#clip0_628_2744)">
<path d="M16.9429 3.05737L28.9429 15.0574C29.7829 15.8974 29.1882 17.3334 28.0002 17.3334H26.6669V25.3334C26.6669 26.3942 26.2455 27.4117 25.4953 28.1618C24.7452 28.9119 23.7277 29.3334 22.6669 29.3334H21.3335V20C21.3336 18.9798 20.9438 17.998 20.2438 17.2557C19.5439 16.5134 18.5867 16.0666 17.5682 16.0067L17.3335 16H14.6669C13.606 16 12.5886 16.4215 11.8385 17.1716C11.0883 17.9218 10.6669 18.9392 10.6669 20V29.3334H9.33355C8.27268 29.3334 7.25527 28.9119 6.50512 28.1618C5.75498 27.4117 5.33355 26.3942 5.33355 25.3334V17.3334H4.00021C2.81355 17.3334 2.21755 15.8974 3.05755 15.0574L15.0575 3.05737C15.3076 2.80741 15.6467 2.66699 16.0002 2.66699C16.3538 2.66699 16.6928 2.80741 16.9429 3.05737ZM17.3335 18.6667C17.6872 18.6667 18.0263 18.8072 18.2764 19.0572C18.5264 19.3073 18.6669 19.6464 18.6669 20V29.3334H13.3335V20C13.3336 19.6735 13.4535 19.3583 13.6705 19.1142C13.8875 18.8702 14.1865 18.7143 14.5109 18.676L14.6669 18.6667H17.3335Z" fill="#808080"/>
</g>
<defs>
<clipPath id="clip0_628_2744">
<rect width="32" height="32" fill="white"/>
</clipPath>
</defs>
</svg>
