<svg width="32" height="32" viewBox="0 0 32 32" fill="none" xmlns="http://www.w3.org/2000/svg">
<g clip-path="url(#clip0_628_2324)">
<path d="M16.0002 2.66669C17.3187 2.66669 18.6076 3.05768 19.704 3.79022C20.8003 4.52277 21.6548 5.56396 22.1594 6.78213C22.6639 8.0003 22.796 9.34075 22.5387 10.634C22.2815 11.9272 21.6466 13.115 20.7142 14.0474C19.7819 14.9797 18.594 15.6147 17.3008 15.8719C16.0076 16.1292 14.6671 15.9971 13.4489 15.4926C12.2308 14.988 11.1896 14.1335 10.457 13.0372C9.72449 11.9408 9.3335 10.6519 9.3335 9.33335L9.34016 9.04402C9.41472 7.32769 10.149 5.70639 11.3898 4.51823C12.6306 3.33008 14.2822 2.66679 16.0002 2.66669Z" fill="#808080"/>
<path d="M18.667 17.5234C20.4351 17.5234 22.1308 18.2258 23.381 19.4761C24.6313 20.7263 25.3337 22.422 25.3337 24.1901V25.5234C25.3337 26.2307 25.0527 26.909 24.5526 27.4091C24.0525 27.9092 23.3742 28.1901 22.667 28.1901H9.33366C8.62641 28.1901 7.94814 27.9092 7.44804 27.4091C6.94794 26.909 6.66699 26.2307 6.66699 25.5234V24.1901C6.66699 22.422 7.36937 20.7263 8.61961 19.4761C9.86986 18.2258 11.5655 17.5234 13.3337 17.5234H18.667Z" fill="#808080"/>
</g>
<defs>
<clipPath id="clip0_628_2324">
<rect width="32" height="32" fill="white"/>
</clipPath>
</defs>
</svg>