<svg width="32" height="32" viewBox="0 0 32 32" fill="none" xmlns="http://www.w3.org/2000/svg">
<g clip-path="url(#clip0_354_4178)">
<path d="M18.98 25.3333C20.1333 25.3333 20.7426 26.6987 19.9733 27.5573C19.4735 28.1166 18.8612 28.5639 18.1764 28.87C17.4917 29.1761 16.75 29.334 16 29.3333C15.2499 29.334 14.5082 29.1761 13.8235 28.87C13.1387 28.5639 12.5264 28.1166 12.0266 27.5573C11.2906 26.736 11.816 25.452 12.872 25.3427L13.0186 25.3347L18.98 25.3333Z" fill="white"/>
<path d="M16.0001 2.66667C17.8108 2.66667 19.3414 3.87067 19.8334 5.52133L19.8948 5.74933L19.9054 5.80667C21.3753 6.63587 22.6278 7.80147 23.5604 9.208C24.493 10.6145 25.0791 12.222 25.2708 13.8987L25.3081 14.2813L25.3334 14.6667V18.5747L25.3614 18.756C25.544 19.7384 26.0877 20.617 26.8854 21.2187L27.1081 21.3747L27.3241 21.5067C28.4708 22.156 28.0708 23.8613 26.8214 23.992L26.6668 24H5.33343C3.96276 24 3.48409 22.1813 4.67609 21.5067C5.18413 21.2192 5.62309 20.8239 5.96215 20.3488C6.3012 19.8736 6.53214 19.3299 6.63876 18.756L6.66676 18.5653L6.66809 14.6053C6.74939 12.8638 7.25631 11.1688 8.14447 9.66862C9.03264 8.16843 10.275 6.90881 11.7628 6L12.0934 5.80533L12.1068 5.748C12.2954 4.9507 12.724 4.23045 13.3349 3.68445C13.9457 3.13845 14.7094 2.79298 15.5228 2.69467L15.7654 2.672L16.0001 2.66667Z" fill="white"/>
</g>
<defs>
<clipPath id="clip0_354_4178">
<rect width="32" height="32" fill="white"/>
</clipPath>
</defs>
</svg>
