<svg width="20" height="15" viewBox="0 0 20 15" fill="none" xmlns="http://www.w3.org/2000/svg">
<path d="M17 0.5C17.7956 0.5 18.5587 0.816071 19.1213 1.37868C19.6839 1.94129 20 2.70435 20 3.5V11.5C20 12.2956 19.6839 13.0587 19.1213 13.6213C18.5587 14.1839 17.7956 14.5 17 14.5H3C2.20435 14.5 1.44129 14.1839 0.87868 13.6213C0.316071 13.0587 0 12.2956 0 11.5V3.5C0 2.70435 0.316071 1.94129 0.87868 1.37868C1.44129 0.816071 2.20435 0.5 3 0.5H17ZM10 4.5C9.23036 4.50006 8.49018 4.79592 7.93255 5.32638C7.37492 5.85684 7.04248 6.58132 7.004 7.35L7 7.5C7 8.09334 7.17595 8.67336 7.50559 9.16671C7.83524 9.66006 8.30377 10.0446 8.85195 10.2716C9.40013 10.4987 10.0033 10.5581 10.5853 10.4424C11.1672 10.3266 11.7018 10.0409 12.1213 9.62132C12.5409 9.20176 12.8266 8.66721 12.9424 8.08527C13.0581 7.50333 12.9987 6.90013 12.7716 6.35195C12.5446 5.80377 12.1601 5.33524 11.6667 5.00559C11.1734 4.67595 10.5933 4.5 10 4.5ZM16.01 6.5H16C15.7348 6.5 15.4804 6.60536 15.2929 6.79289C15.1054 6.98043 15 7.23478 15 7.5C15 7.76522 15.1054 8.01957 15.2929 8.20711C15.4804 8.39464 15.7348 8.5 16 8.5H16.01C16.2752 8.5 16.5296 8.39464 16.7171 8.20711C16.9046 8.01957 17.01 7.76522 17.01 7.5C17.01 7.23478 16.9046 6.98043 16.7171 6.79289C16.5296 6.60536 16.2752 6.5 16.01 6.5ZM4.01 6.5H4C3.86868 6.50066 3.73877 6.52717 3.6177 6.57803C3.49662 6.62889 3.38675 6.70311 3.29436 6.79643C3.20196 6.88975 3.12885 7.00036 3.07921 7.12194C3.02956 7.24351 3.00434 7.37368 3.005 7.505C3.00566 7.63632 3.03217 7.76623 3.08303 7.8873C3.1339 8.00838 3.20811 8.11825 3.30143 8.21064C3.39475 8.30304 3.50536 8.37614 3.62694 8.42579C3.74851 8.47544 3.87868 8.50066 4.01 8.5C4.27522 8.5 4.52957 8.39464 4.71711 8.20711C4.90464 8.01957 5.01 7.76522 5.01 7.5C5.01 7.23478 4.90464 6.98043 4.71711 6.79289C4.52957 6.60536 4.27522 6.5 4.01 6.5Z" fill="#8BB96A"/>
</svg>
