<svg width="20" height="20" viewBox="0 0 20 20" fill="none" xmlns="http://www.w3.org/2000/svg">
<g clip-path="url(#clip0_322_3293)">
<path d="M3.3335 9.16671C3.3335 9.93275 3.48438 10.6913 3.77753 11.399C4.07068 12.1068 4.50036 12.7498 5.04204 13.2915C5.58371 13.8332 6.22678 14.2629 6.93451 14.556C7.64224 14.8492 8.40079 15 9.16683 15C9.93287 15 10.6914 14.8492 11.3991 14.556C12.1069 14.2629 12.7499 13.8332 13.2916 13.2915C13.8333 12.7498 14.263 12.1068 14.5561 11.399C14.8493 10.6913 15.0002 9.93275 15.0002 9.16671C15.0002 8.40066 14.8493 7.64212 14.5561 6.93439C14.263 6.22665 13.8333 5.58359 13.2916 5.04192C12.7499 4.50024 12.1069 4.07056 11.3991 3.77741C10.6914 3.48426 9.93287 3.33337 9.16683 3.33337C8.40079 3.33337 7.64224 3.48426 6.93451 3.77741C6.22678 4.07056 5.58371 4.50024 5.04204 5.04192C4.50036 5.58359 4.07068 6.22665 3.77753 6.93439C3.48438 7.64212 3.3335 8.40066 3.3335 9.16671Z" stroke="#3F3F46" stroke-width="2" stroke-linecap="round" stroke-linejoin="round"/>
<path d="M17.5002 17.5L13.3335 13.3334" stroke="#3F3F46" stroke-width="2" stroke-linecap="round" stroke-linejoin="round"/>
</g>
<defs>
<clipPath id="clip0_322_3293">
<rect width="20" height="20" fill="white"/>
</clipPath>
</defs>
</svg>
