<svg width="12" height="24" viewBox="0 0 12 24" fill="none" xmlns="http://www.w3.org/2000/svg">
<path d="M5.99953 0C6.95434 0 7.87005 0.379984 8.5452 1.05636C9.22036 1.73273 9.59966 2.6501 9.59966 3.60664V13.1823L9.68966 13.2496C10.5816 13.9464 11.2587 14.8815 11.643 15.9472C12.0273 17.0129 12.1031 18.1657 11.8617 19.2727L11.7957 19.5456C11.5493 20.4662 11.0879 21.315 10.4496 22.0218C9.81125 22.7286 9.01427 23.2732 8.12443 23.6107C7.23459 23.9481 6.2774 24.0688 5.33187 23.9626C4.38633 23.8564 3.47955 23.5265 2.68636 23.0001C1.89317 22.4736 1.23632 21.7658 0.770016 20.9349C0.30371 20.1041 0.0413179 19.174 0.00449563 18.2216C-0.0323267 17.2691 0.157476 16.3215 0.55824 15.457C0.959004 14.5925 1.55924 13.8359 2.30941 13.2496L2.39941 13.1823V3.60664C2.39936 2.68669 2.75021 1.8015 3.38018 1.13217C4.01016 0.462843 4.87162 0.0599813 5.78833 0.0060112L5.99953 0ZM5.99953 2.40442C5.68126 2.40442 5.37603 2.53109 5.15098 2.75654C4.92592 2.982 4.79949 3.28779 4.79949 3.60664V8.41548H7.19957V3.60664C7.19957 3.28779 7.07314 2.982 6.84809 2.75654C6.62304 2.53109 6.3178 2.40442 5.99953 2.40442Z" fill="#FF8D3C"/>
</svg>
