<svg width="361" height="229" viewBox="0 0 361 229" fill="none" xmlns="http://www.w3.org/2000/svg">
<mask id="mask0_646_4941" style="mask-type:alpha" maskUnits="userSpaceOnUse" x="0" y="0" width="361" height="229">
<rect width="361" height="229" rx="30" fill="#FFEFE3"/>
</mask>
<g mask="url(#mask0_646_4941)">
<rect x="186" y="142.85" width="16" height="24" rx="8" transform="rotate(-46.3885 186 142.85)" fill="#FFE5E0"/>
<rect width="19.3787" height="24.3595" transform="matrix(-1 0 0 1 295.018 118.254)" fill="#FFE5E0"/>
<ellipse cx="9.68933" cy="5.62142" rx="9.68933" ry="5.62142" transform="matrix(-1 0 0 1 295.018 119.638)" fill="#FFCFC6"/>
<ellipse cx="287.229" cy="96.3644" rx="29.0623" ry="30.9178" fill="#FFE5E0"/>
<ellipse cx="2.06611" cy="2.89255" rx="2.06611" ry="2.89255" transform="matrix(-0.991731 -0.128333 -0.128333 0.991731 278.204 95.6987)" fill="#240B09"/>
<ellipse cx="2.06611" cy="2.89255" rx="2.06611" ry="2.89255" transform="matrix(-0.991731 -0.128333 -0.128333 0.991731 291.272 96.4019)" fill="#240B09"/>
<path d="M279.151 107.884C280.164 108.539 282.705 109.399 284.765 107.593" stroke="#240B09" stroke-width="1.44203" stroke-linecap="round"/>
<path d="M281.437 101.626L281.056 103.46" stroke="#FFB3A4" stroke-width="1.44203" stroke-linecap="round"/>
<path d="M307.92 137.75L295.054 134.691C286.818 142.848 278.277 137.92 275.607 134.181L265.312 137.75L256.733 140.299C254.278 141.317 251.983 142.397 249.949 143.524C243 147.376 239.25 154.914 235.069 161.669L234.864 162L316.775 165.579L324.364 185.5L287.364 169L280.864 179.5C298.464 217.5 326.531 211.167 337.864 205C348.664 197.8 342.364 176.667 337.864 166.5L331.864 155.5C327.364 147.5 312.305 138.599 307.92 137.75Z" fill="#FFC778"/>
<path d="M290.362 91.4806C291.238 91.0246 293.331 90.7034 294.695 93.0665" stroke="#402724" stroke-width="1.44203" stroke-linecap="round"/>
<circle cx="9.3517" cy="9.3517" r="9.3517" transform="matrix(-1 0 0 1 266.802 92)" fill="#FFE5E0"/>
<circle cx="9.3517" cy="9.3517" r="9.3517" transform="matrix(-1 0 0 1 326.067 92)" fill="#FFE5E0"/>
<path d="M279.35 76.0448C275.417 86.0339 262.176 91.2909 256.425 93.2764C255.687 66.2746 274.531 59.0082 284.046 58.7502C312.005 56.4365 321.644 81.3551 320.278 93.1336C298.474 92.7115 283.658 81.5203 279.35 76.0448Z" fill="#251812"/>
<path d="M229.864 159L250.364 144.5L262.864 164.5L236.911 182.589C232.858 185.413 227.35 184.855 223.946 181.275L200.864 157L210.864 144.5L229.864 159Z" fill="#FFC778"/>
<path d="M243.864 266.5L253.364 158.5L316.864 163L329.864 266.5H243.864Z" fill="#FFC778"/>
<path d="M287.664 221.998H241.076C240.135 221.956 239.234 221.61 238.506 221.012C237.779 220.414 237.265 219.597 237.041 218.683L221.466 146.317C221.352 145.922 221.333 145.506 221.412 145.102C221.49 144.698 221.663 144.319 221.917 143.995C222.171 143.672 222.498 143.413 222.871 143.24C223.244 143.068 223.653 142.986 224.064 143.002H270.637C271.58 143.041 272.485 143.386 273.216 143.984C273.946 144.581 274.463 145.4 274.687 146.317L290.262 218.683C290.376 219.078 290.395 219.494 290.316 219.898C290.238 220.302 290.065 220.681 289.811 221.005C289.557 221.328 289.23 221.587 288.857 221.76C288.484 221.932 288.075 222.014 287.664 221.998Z" fill="#FFC778"/>
<path d="M288.259 222.998H241.006C240.051 222.954 239.136 222.602 238.397 221.996C237.658 221.391 237.135 220.563 236.906 219.636L221.099 146.364C220.986 145.962 220.969 145.539 221.051 145.13C221.133 144.721 221.31 144.337 221.568 144.009C221.827 143.682 222.159 143.42 222.539 143.245C222.918 143.069 223.334 142.986 223.751 143.002H271.004C271.959 143.046 272.875 143.397 273.613 144.003C274.352 144.609 274.875 145.437 275.104 146.364L290.896 219.636C291.012 220.037 291.031 220.459 290.952 220.868C290.873 221.278 290.697 221.662 290.439 221.991C290.182 222.319 289.85 222.581 289.471 222.757C289.092 222.932 288.676 223.014 288.259 222.998Z" fill="white"/>
<path d="M284.623 222.998H237.37C236.415 222.954 235.5 222.602 234.761 221.996C234.022 221.391 233.499 220.563 233.27 219.636L217.463 146.364C217.35 145.962 217.333 145.539 217.415 145.13C217.497 144.721 217.674 144.337 217.932 144.009C218.191 143.682 218.523 143.42 218.903 143.245C219.282 143.069 219.698 142.986 220.115 143.002H267.368C268.323 143.046 269.239 143.397 269.978 144.003C270.716 144.609 271.239 145.437 271.468 146.364L287.26 219.636C287.376 220.037 287.395 220.459 287.316 220.868C287.237 221.278 287.061 221.662 286.803 221.991C286.546 222.319 286.214 222.581 285.835 222.757C285.456 222.932 285.04 223.014 284.623 222.998Z" fill="#FF8D3C"/>
<path d="M237 138.646C237 134.976 239.976 132 243.646 132C247.317 132 250.292 134.976 250.292 138.646H237Z" fill="#D9D9D9"/>
<rect x="232" y="138" width="24" height="9" rx="2" fill="#D9D9D9"/>
<rect x="232" y="145" width="24" height="2" rx="1" fill="#808080"/>
<rect x="262.364" y="165.584" width="16" height="24" rx="8" transform="rotate(-46.3885 262.364 165.584)" fill="#FFE5E0"/>
</g>
<mask id="mask1_646_4941" style="mask-type:alpha" maskUnits="userSpaceOnUse" x="0" y="0" width="361" height="229">
<rect x="1" y="1" width="359" height="227" rx="29" stroke="#FF964D" stroke-width="2"/>
</mask>
<g mask="url(#mask1_646_4941)">
</g>
</svg>
