<svg width="361" height="239" viewBox="0 0 361 239" fill="none" xmlns="http://www.w3.org/2000/svg">
<mask id="mask0_646_4969" style="mask-type:alpha" maskUnits="userSpaceOnUse" x="0" y="0" width="361" height="229">
<rect width="361" height="229" rx="30" fill="white"/>
</mask>
<g mask="url(#mask0_646_4969)">
<circle cx="270.746" cy="74.2601" r="9.3517" fill="#FFE5E0"/>
<path d="M216.754 135.276L242.783 124.134L248.836 143.952L221.642 151.727L216.754 135.276Z" fill="#FFE5E0"/>
<path d="M320.203 101.348C316.289 96.8262 314.515 89.0985 314.085 84.9321L322.255 79.4145C340.88 91.8973 332.759 109.508 326.371 116.754C327.542 113.959 327.412 111.258 326.791 109.043C325.861 105.724 322.458 103.954 320.203 101.348Z" fill="#251812"/>
<rect x="288.344" y="89.2537" width="19.3787" height="24.3595" fill="#FFE5E0"/>
<ellipse cx="298.033" cy="96.2591" rx="9.68933" ry="5.62142" fill="#FFCFC6"/>
<ellipse cx="29.0623" cy="30.9178" rx="29.0623" ry="30.9178" transform="matrix(-1 0 0 1 325.195 36.4465)" fill="#FFE5E0"/>
<path d="M306.319 46.6097C310.057 56.6731 323.194 62.1853 328.906 64.2819C330.166 37.2994 311.466 29.6696 301.959 29.2275C274.049 26.3731 263.929 51.1004 265.067 62.9032C286.875 62.9032 301.905 52.0008 306.319 46.6097Z" fill="#251812"/>
<ellipse cx="2.06611" cy="2.89255" rx="2.06611" ry="2.89255" transform="matrix(-0.997103 0.0760686 0.0760686 0.997103 276.692 68.1775)" fill="#240B09"/>
<ellipse cx="2.06611" cy="2.89255" rx="2.06611" ry="2.89255" transform="matrix(-0.997103 0.0760686 0.0760686 0.997103 289.63 66.2078)" fill="#240B09"/>
<path d="M280.097 79.9153C281.222 80.351 283.885 80.6756 285.535 78.4884" stroke="#240B09" stroke-width="1.44203" stroke-linecap="round"/>
<path d="M281.063 73.323V75.1968" stroke="#FFB3A4" stroke-width="1.44203" stroke-linecap="round"/>
<path d="M275.442 108.75L288.308 105.691C296.544 113.848 305.085 108.92 307.754 105.181L318.049 108.75L326.628 111.299C334.467 114.55 340.164 122.004 341.499 126.082L346.518 139.737L248.271 139.847L253.991 126.082C256.736 116.294 271.057 109.599 275.442 108.75Z" fill="#8DB2FE"/>
<path d="M287.737 61.5746C288.502 60.95 290.486 60.2098 292.302 62.2461" stroke="#402724" stroke-width="1.44203" stroke-linecap="round"/>
<path d="M320.901 109.579L315.265 107.779L314.797 126.517H321.355L320.901 109.579Z" fill="#53917C"/>
<path d="M272.523 109.579L275.015 108.817L277.914 108.163L278.627 126.517H272.068L272.523 109.579Z" fill="#53917C"/>
<path d="M243.206 122.716L267.216 113.552L260.378 138.545L247.624 145.039L243.206 122.716Z" fill="#8DB2FE" stroke="#8DB2FE" stroke-width="2.88405" stroke-linecap="round"/>
<circle cx="325.911" cy="67.3644" r="9.3517" fill="#FFE5E0"/>
<path d="M267.694 186.732L260.96 138.533L325.816 136.406L346.516 139.719L349 156.5H324L331.716 256.052L246.716 251.052L267.694 186.732Z" fill="#8DB2FE"/>
<path d="M271.942 123.22C272.071 122.539 272.666 122.045 273.359 122.045H319.902C320.637 122.045 321.255 122.599 321.335 123.33L334.5 243L249.752 240.921L271.942 123.22Z" fill="#53917C"/>
<path d="M304.989 170.4C311.327 166.797 322.994 159.183 324.952 157.552H328.556H344.5C344.125 188.334 316.216 193.052 302.672 190.481L256.716 178.896V163.835L304.989 170.4Z" fill="#FFE5E0" stroke="#FFE5E0" stroke-width="2" stroke-linecap="round"/>
<path d="M245.633 168.881C245.076 168.881 244.541 168.659 244.146 168.265C243.752 167.871 243.53 167.336 243.53 166.778V150.669C243.531 147.583 244.719 144.616 246.85 142.384C248.98 140.152 251.889 138.826 254.971 138.681L268.542 138.023C269.1 137.997 269.645 138.193 270.058 138.569C270.471 138.945 270.718 139.47 270.744 140.027C270.77 140.585 270.573 141.13 270.197 141.543C269.821 141.956 269.296 142.203 268.739 142.229L255.167 142.888C253.164 142.981 251.273 143.844 249.889 145.296C248.505 146.748 247.734 148.677 247.736 150.683V166.792C247.733 167.347 247.51 167.879 247.116 168.27C246.722 168.661 246.189 168.881 245.633 168.881Z" fill="#263238"/>
<rect x="166.011" y="164.19" width="8.98047" height="76.9143" rx="4.49023" fill="#D9D9D9"/>
<rect x="174.548" y="194.822" width="68.9828" height="76.9143" rx="4.49023" fill="#D9D9D9"/>
<rect x="191.989" y="187.769" width="18.7381" height="22.5931" fill="#FFE5E0"/>
<ellipse cx="201.358" cy="194.822" rx="9.36904" ry="5.62142" fill="#FFCFC6"/>
<circle cx="174.176" cy="172.776" r="9.3517" fill="#FFE5E0"/>
<path d="M178.388 207.061L191.254 204.002C199.49 212.159 208.031 207.231 210.7 203.492L220.995 207.061L229.575 209.61C237.413 212.861 243.111 220.315 244.445 224.394L249.593 238.158H151.218L156.937 224.394C159.683 214.606 174.003 207.911 178.388 207.061Z" fill="#B3CAFF"/>
<circle cx="229.342" cy="165.88" r="9.3517" fill="#FFE5E0"/>
<ellipse cx="29.0623" cy="30.9178" rx="29.0623" ry="30.9178" transform="matrix(-1 0 0 1 228.626 134.962)" fill="#FFE5E0"/>
<ellipse cx="211.949" cy="168.117" rx="2.06611" ry="2.89255" transform="rotate(4.36262 211.949 168.117)" fill="#240B09"/>
<ellipse cx="198.125" cy="167.765" rx="2.06611" ry="2.89255" transform="rotate(4.36262 198.125 167.765)" fill="#240B09"/>
<path d="M201.554 177.448C202.773 177.999 205.774 178.598 208.027 176.587" stroke="#240B09" stroke-width="1.44203" stroke-linecap="round"/>
<path d="M200.646 174.121C199.453 174.803 196.773 177.102 195.604 180.844" stroke="#FFB3A4" stroke-width="1.44203" stroke-linecap="round"/>
<path d="M204.852 171.839V173.713" stroke="#FFB3A4" stroke-width="1.44203" stroke-linecap="round"/>
<path d="M197.935 159.282C196.999 158.968 194.881 158.978 193.904 161.525" stroke="#402724" stroke-width="1.44203" stroke-linecap="round"/>
<path d="M146.016 160.054C149.526 156.98 156.202 158.723 161.02 160.65C161.02 160.444 161.02 160.26 161.02 160.054C160.897 156.513 161.632 152.994 163.162 149.799C164.692 146.603 166.972 143.824 169.807 141.7C169.807 133.991 175.772 130.595 182.334 128.554C188.895 126.512 194.608 130.366 202.317 126.741C203.572 126.015 204.961 125.551 206.4 125.375C207.84 125.2 209.3 125.317 210.692 125.72C212.085 126.123 213.382 126.803 214.506 127.72C215.629 128.636 216.556 129.771 217.23 131.054C219.226 134.679 218.354 139.933 224.778 140.117C231.202 140.3 229.642 146.311 228.403 149.523C227.164 152.735 227.508 151.817 229.55 155.374C230.949 157.805 228.862 159.343 227.37 159.962C227.623 161.66 227.669 162.715 227.669 162.715C227.485 161.798 227.279 160.926 227.049 160.1C217.872 125.158 183.825 145.829 183.825 145.829C187.129 157.874 180.613 175.173 180.613 175.173C177.745 182.859 181.967 190.614 184.628 194.445C185.21 195.303 185.846 196.123 186.532 196.9C185.349 196.187 184.236 195.365 183.206 194.445C169.44 193.963 170.082 186.484 170.105 184.006C169.821 182.848 169.297 181.761 168.568 180.817C166.274 185.268 161.433 191.141 152.83 189.237C139.431 186.346 140.119 165.239 146.016 160.054Z" fill="#D2D3D5"/>
<rect x="241.053" y="164.19" width="8.98047" height="76.9143" rx="4.49023" fill="#D9D9D9"/>
<ellipse cx="251.532" cy="170.806" rx="13.4498" ry="12.8149" fill="#FFE5E0"/>
</g>
</svg>
